<svg xmlns="http://www.w3.org/2000/svg" id="Layer_1" data-name="Layer 1" viewBox="0 0 150 71"><defs><style>.cls-1{fill:#edf4f2}</style></defs><path d="M39.98 42.13s-.21 0-.49-.07c-.35 0-.84-.07-1.48-.07-1.34-.07-3.31-.07-5.84.21-2.53.29-5.56.78-9.08 1.71-3.45.93-7.39 2.14-11.26 4.56-1.9 1.14-3.87 2.57-5.63 4.35-1.76 1.71-3.45 3.71-4.58 6.13-.28.57-.49 1.21-.7 1.85-.21.64-.28 1.28-.21 1.92 0 .64.21 1.28.56 1.85.35.5.92.93 1.48 1.14.56.21 1.27.14 1.9-.07.63-.21 1.27-.57 1.9-.93 1.2-.78 2.32-1.71 3.38-2.78 2.11-2.07 4.15-4.49 5.98-6.99 1.9-2.49 3.73-5.2 5.42-7.98 3.45-5.56 6.69-11.55 9.43-17.96 2.11-4.85 3.87-9.69 5.21-14.47.7-2.42 1.27-4.85 1.69-7.2.21-1.21.42-2.35.49-3.56.07-.57.07-1.14.07-1.71 0-.29 0-.57-.07-.86V.99c-.07.14-.14.29-.21.43-.14.29-.21.57-.35.86-.21.57-.35 1.21-.56 1.78-.35 1.21-.63 2.42-.92 3.64-.56 2.42-1.06 4.85-1.48 7.2-.84 4.7-1.55 9.2-2.04 13.47-1.06 8.55-1.41 16.18-1.41 22.53s.28 11.33.56 14.83c.14 1.71.28 3.07.35 3.92.07.43.07.78.14 1v.36s-.07-.14-.07-.36c-.07-.21-.07-.57-.14-1-.14-.86-.28-2.21-.49-3.92-.35-3.42-.7-8.48-.77-14.83-.07-6.34.21-13.97 1.27-22.6.49-4.28 1.13-8.84 1.97-13.54.42-2.35.92-4.78 1.41-7.2.28-1.21.56-2.42.92-3.71.14-.64.35-1.21.56-1.85.07-.29.21-.64.35-.93.07-.14.14-.29.21-.5.14-.29.35-.5.56-.57.21 0 .42.14.56.36.07.07.07.29.14.36 0 .07 0 .14.07.21.07.29.07.64.07.93 0 .64-.07 1.21-.07 1.78-.14 1.21-.28 2.42-.49 3.64-.42 2.42-.99 4.85-1.69 7.27-1.34 4.85-3.1 9.77-5.21 14.61-2.75 6.42-6.05 12.47-9.5 18.04-1.76 2.78-3.59 5.49-5.49 7.98-1.9 2.57-3.94 4.92-6.12 7.06-1.13 1.07-2.25 2-3.52 2.85-.63.36-1.34.78-2.04.93-.7.21-1.55.36-2.32.07-.77-.29-1.34-.78-1.76-1.5-.42-.64-.63-1.43-.63-2.14s.07-1.5.28-2.14c.21-.71.42-1.35.7-1.92 1.2-2.49 2.89-4.49 4.72-6.27 1.83-1.71 3.73-3.21 5.7-4.35 3.94-2.42 7.95-3.56 11.4-4.49 3.52-.93 6.62-1.35 9.15-1.57 2.53-.21 4.5-.14 5.84-.07.63.07 1.2.14 1.48.14.56.29.7.36.7.36Z" class="cls-1"/><path d="M62.93 46.48s-.07.29-.35.71c-.28.43-.7 1.14-1.55 1.78-.77.64-2.18 1.21-3.59.71-.7-.29-1.41-.86-1.69-1.71-.35-.86-.35-1.78-.21-2.71.14-.93.35-1.85.77-2.85.21-.5.42-.93.99-1.35.14-.07.35-.21.56-.14.21 0 .42.21.49.36.14.29.21.64.21.93-.07.64-.35 1.14-.56 1.64l-.84 1.5c-.63 1-1.34 1.92-2.25 2.78-.21.21-.42.43-.7.64-.28.21-.49.43-.92.57h-.42c-.14-.07-.28-.14-.28-.29-.14-.29-.14-.43-.14-.64 0-.36.07-.71.14-1 .14-.64.35-1.28.49-1.85.07-.29.21-.64.28-.93l.07-.29-.21.29c-.35.57-.7 1.14-1.06 1.71-.35.57-.77 1.14-1.2 1.71-.21.29-.42.57-.7.86-.14.14-.28.29-.42.36-.14.14-.35.29-.63.29-.07 0-.21 0-.35-.07-.28-.14-.42-.36-.42-.57-.07-.21-.07-.36-.07-.5 0-.29.07-.64.14-.86.14-.57.35-1.07.56-1.57.14-.43.28-.78.42-1.21l-.35.43-.42.57c-.28.43-.56.86-.84 1.28-.28.43-.56.86-.92 1.28-.14.21-.35.43-.56.57-.14.07-.21.21-.42.29-.21.07-.42.07-.63-.07-.14-.14-.28-.36-.28-.57v-.43c.07-.29.07-.5.14-.71.14-.5.28-.93.49-1.35.14-.43.35-.86.49-1.28l.07-.21v-.07l-.07.07-.07.07-.21.21c-.21.29-.49.64-.7.93-.42.64-.92 1.28-1.34 1.85-.49.57-.92 1.21-1.48 1.71-.14.14-.28.21-.49.36-.07.07-.21.07-.35.14-.14 0-.28 0-.42-.07-.28-.21-.28-.5-.28-.64 0-.21 0-.36.07-.57.14-.71.35-1.28.56-1.92.21-.5.35-.93.56-1.35l.07-.14c0-.07.07-.14 0-.14s-.14.14-.21.21l-.07.14-.21.29c-.14.21-.28.43-.42.57-.56.78-1.06 1.5-1.62 2.07-.56.57-1.06.93-1.55 1.14-.49.21-.84.36-1.13.43-.28.07-.42.07-.42.07 0-.07.56-.14 1.41-.71.42-.29.92-.64 1.41-1.14.49-.57.99-1.28 1.48-2.07.14-.21.28-.43.42-.64.07-.14.14-.21.21-.36.14-.14.28-.29.35-.5.14-.14.28-.29.35-.29.14-.07.21-.14.35-.14s.14.14.21.29c0 .07 0 .29-.07.43-.07.21-.14.43-.21.64-.07.14-.14.36-.21.5-.07.29-.21.57-.35.86-.21.57-.42 1.21-.56 1.85 0 .14-.07.29 0 .43 0 .14.07.21.07.21 0 .07.35-.07.56-.36.49-.43.92-1.07 1.34-1.64.42-.57.84-1.21 1.34-1.85.21-.29.49-.64.7-1l.21-.21.14-.21.21-.21c.14-.14.28-.21.35-.29.14-.07.21-.07.28-.07.28.07.35.29.35.57s-.21.86-.28 1c-.14.43-.35.86-.49 1.28-.14.43-.35.86-.42 1.28-.07.21-.14.43-.14.64v.29s-.07.07.21-.14c.14-.14.28-.36.49-.5.28-.36.56-.78.84-1.21.28-.43.56-.86.84-1.28l.42-.64.21-.36.14-.21.21-.29.28-.29c.07-.07.14-.14.21-.14.14-.07.28-.07.42-.07.21.07.21.14.28.29.07.14 0 .36 0 .57 0 .14-.07.21-.07.36l-.07.29-.14.36-.28.78c-.21.5-.35 1-.49 1.5-.07.29-.14.5-.14.71s.07.43.07.36c.07 0 .42-.21.63-.43.21-.21.42-.5.63-.78.42-.57.77-1.07 1.13-1.64.35-.57.7-1.14 1.13-1.71.07-.14.63-1 .92-1.14.07-.07.14-.07.21-.07s.14 0 .21.07c.21.07.21.14.28.36 0 .21 0 .5-.07.78 0 .14-.07.36-.14.43l-.07.21c-.07.29-.21.64-.28.93-.21.64-.35 1.21-.49 1.85-.07.29-.14.57-.14.86v.29c.14-.07.42-.21.63-.43s.42-.36.63-.57c.84-.86 1.55-1.78 2.18-2.71.28-.5.63-.93.84-1.43.21-.5.49-1 .56-1.43.07-.21 0-.43-.07-.57.14.14.14.07.07.07 0 0-.07 0-.14.07-.35.21-.56.71-.77 1.14-.42.86-.63 1.78-.77 2.64-.14.86-.14 1.71.14 2.49.21.71.77 1.28 1.41 1.5.63.29 1.27.21 1.83.14.56-.14 1.06-.36 1.48-.71.77-.57 1.27-1.21 1.62-1.64.28-.43.42-.71.42-.64ZM59.76 65.8c-.21-.07 3.31-11.83 7.74-26.3s8.24-26.16 8.45-26.16c.21.07-3.31 11.83-7.74 26.3S59.97 65.8 59.76 65.8Z" class="cls-1"/><path d="M41.32 34.15h.21c.14 0 .35 0 .56-.07.49-.07 1.27-.07 2.25-.21 1.97-.14 4.93-.36 8.73-.64 7.6-.57 18.51-1.43 32.1-2.35 6.76-.43 14.22-.93 22.17-1.43 7.95-.43 16.47-.86 25.48-1.07 2.25-.07 4.51-.07 6.83-.07s4.65.07 6.97.36c.56.07 1.2.14 1.76.29.28.07.63.14.92.29.14.07.28.14.49.36.07.07.14.21.21.36v.43c-.21.64-.49 1.21-.85 1.71-.35.5-.77 1-1.13 1.43-1.62 1.85-3.45 3.42-5.42 4.99-3.87 3.07-8.02 5.92-12.32 8.55-2.18 1.28-4.36 2.57-6.69 3.78-2.32 1.14-4.65 2.28-7.18 3.07-.99.29-1.9.57-2.89.71-.49.07-.99.14-1.48.14s-.99 0-1.55-.07c-.99-.14-2.04-.5-2.89-1.14-.85-.71-1.34-1.64-1.62-2.64-.28-1-.35-2.07-.28-3.07.07-1 .28-2 .49-2.92.21-.93.56-1.85.85-2.78.14-.43.28-.93.42-1.35.07-.21.14-.43.14-.64v-.21l-.07.07c-.14.14-.21.29-.35.43-.21.29-.42.64-.63.93-.42.64-.77 1.35-1.13 2-.78 1.35-1.48 2.71-2.32 4.06-.21.36-.42.64-.78 1-.14.07-.28.21-.49.21-.14 0-.35-.07-.42-.21-.14-.14-.14-.29-.14-.5v-.36c.14-.86.42-1.57.63-2.28.28-.71.56-1.43.84-2.14l.21-.5.14-.29-.07.07c-.21.29-.35.57-.56.86-.35.57-.7 1.14-1.06 1.71-.35.57-.7 1.14-1.13 1.71-.42.57-.84 1.07-1.41 1.57-.28.21-.7.43-1.2.36-.21-.07-.42-.14-.56-.36-.14-.14-.28-.36-.28-.57-.07-.43 0-.78.07-1.14.14-.36.28-.64.42-.93.63-1.21 1.41-2.21 2.32-3.21l.28.57c-.92.21-1.69.78-2.25 1.5-.63.71-1.13 1.57-1.55 2.42-.21.43-.49.86-.7 1.28-.28.43-.49.86-.99 1.28-.07.07-.14.07-.21.14-.07 0-.21.07-.28 0-.07 0-.14 0-.28-.07-.07-.07-.21-.07-.28-.14-.14-.14-.21-.43-.14-.57 0-.21.07-.29.14-.43.21-.5.42-.86.63-1.28.21-.43.28-.78.35-1.28.07-.5.14-.93.21-1.43.07-.5.14-.93.14-1.43v-.36c.14-.21-.56 1-.99 1.71-.49.78-.99 1.57-1.55 2.28-.56.71-1.06 1.5-1.83 2.07-.21.14-.35.29-.7.36-.14.07-.35.07-.56-.07l-.21-.21c-.07-.07-.07-.14-.14-.21-.21-.64.07-1.07.21-1.5.35-.86.84-1.57 1.06-2.35 0-.14.07-.36 0-.43 0 0-.14-.21-.14-.29-.07-.14-.07-.29-.07-.43 0-.29 0-.5.07-.71 0-.14.07-.21.07-.36l.07-.21q0-.07.07-.14c0-.07-.07-.07-.07-.07l-.07.07-.14.21-.14.29c-.42.71-.77 1.5-1.13 2.21-.35.71-.7 1.5-1.13 2.21-.21.36-.42.71-.63 1.07-.14.14-.21.36-.42.5-.14.14-.56.36-.84.14-.35-.29-.35-.64-.42-.86v-.78c.07-.5.14-1 .21-1.43.07-.5.21-.93.28-1.35 0-.21.07-.43.07-.64 0-.07 0-.14-.07-.14 0 0-.35.29-.49.57-.21.29-.42.5-.63.78-.35.57-.77 1.07-1.13 1.57-.35.5-.77 1-1.13 1.5-.21.21-.42.5-.63.71-.14.07-.28.21-.42.29-.14.07-.42.14-.63 0-.28-.21-.28-.5-.28-.64 0-.21 0-.43.07-.57.07-.36.21-.71.28-1.07.21-.64.56-1.28.84-1.92.28-.64.56-1.21.84-1.85 0-.07.07-.14.07-.21h.14v.07c0 .07.07.07.07.07-.07.07-.21.21-.28.29-.21.21-.42.5-.56.78-.77 1.07-1.55 2.07-2.32 2.99s-1.55 1.85-2.6 2.42c-.14.07-.28.14-.42.14s-.28.07-.42.07c-.28 0-.63 0-.92-.21-.28-.21-.42-.5-.49-.78-.07-.29 0-.57 0-.86.14-1.07.42-2.07.7-2.99.28-.93.56-1.85 1.06-2.64.14-.21.28-.36.49-.5.07-.07.28-.14.42-.07.14 0 .28.14.35.21.28.43.21.86.21 1.28a7.32 7.32 0 0 1-.56 2.21c-.35.64-.7 1.14-1.13 1.64-.84.86-1.69 1.5-2.32 2-.7.5-1.2.78-1.55 1-.21.07-.35.14-.42.21.07-.07.21-.14.42-.29.35-.21.84-.57 1.55-1.07.63-.5 1.48-1.14 2.25-2 .42-.43.77-1 1.06-1.57.28-.64.49-1.35.49-2.14 0-.36 0-.78-.21-1.14-.14-.29-.56.07-.77.43-.42.71-.7 1.64-.99 2.57-.28.93-.56 1.92-.63 2.92v.78c0 .21.14.43.28.57.21.14.42.14.7.14.14 0 .28 0 .42-.07.14 0 .21-.07.35-.14.92-.5 1.69-1.43 2.46-2.35.77-.93 1.48-1.92 2.25-2.99.21-.29.35-.5.63-.78.14-.14.21-.29.35-.43 0 0 .07-.07.14-.07h.14c.07 0 .14.07.14.07.07.14.07.21.07.29s-.07.21-.07.29c-.21.64-.56 1.28-.84 1.85-.28.64-.56 1.28-.77 1.92-.14.36-.21.64-.28 1-.07.29-.07.71.07.78.07.07.35-.07.56-.21.21-.21.42-.43.63-.64.42-.5.77-1 1.13-1.5.35-.5.77-1.07 1.13-1.57.21-.29.42-.57.63-.78.14-.14.21-.29.35-.43l.21-.21c.14-.07.21-.14.35-.21.14 0 .35 0 .42.21.07.14.14.36.14.5 0 .29 0 .5-.07.71-.07.5-.14.93-.28 1.43-.07.5-.14.93-.21 1.43v.71c0 .21.14.43.14.5 0 .14.35-.21.56-.5.21-.29.42-.64.63-1 .35-.71.7-1.43 1.06-2.14.35-.71.7-1.5 1.13-2.21l.14-.29q.07-.14.21-.29c.21-.29.42-.64.63-.64.21-.14.56.07.63.29 0 .07 0 .14.07.14v.21c-.07.14-.07.36-.14.5l-.14.36c0 .07-.07.21-.07.29-.07.21-.07.36-.07.57 0 .07 0 .14.07.21l.14.29c.14.29.07.57.07.86-.28.93-.7 1.64-1.06 2.42-.14.36-.28.78-.21 1.07 0 .07.07.14.07.14h.07c.14 0 .28-.14.42-.29.63-.57 1.2-1.28 1.69-2 .49-.71.99-1.5 1.48-2.28.21-.36.49-.78.7-1.21l.14-.29.28-.5c.21-.43.42-.57.56-.64h.21c.07 0 .07.07.14.07.07.07.14.21.14.36v1.14c-.07.5-.07.93-.14 1.43-.07.5-.14.93-.21 1.43-.07.43-.14 1-.35 1.5-.21.5-.42.93-.63 1.28-.07.07-.07.21-.07.29v.07h.14q.07 0 .14-.07c.28-.21.56-.64.77-1.07.21-.43.49-.86.7-1.28.49-.86.99-1.78 1.69-2.57.63-.78 1.55-1.5 2.6-1.71l.99-.21-.63.78c-.84.93-1.62 2-2.18 3.07-.28.57-.56 1.21-.42 1.64 0 .14.07.21.14.29.07.07.14.14.28.14.14.07.42-.07.63-.21.49-.36.92-.86 1.27-1.35s.77-1.07 1.13-1.64c.35-.57.7-1.14 1.06-1.71.14-.29.35-.57.56-.86 0-.07.14-.21.21-.36.07-.14.21-.29.28-.36l.14-.14.14-.07c.07-.07.14-.07.21-.07s.21.07.28.07c.07.07.14.14.14.21v.36c0 .14-.07.29-.07.5l-.07.29-.07.21-.07.29-.21.5c-.28.71-.56 1.43-.84 2.14-.28.71-.49 1.43-.63 2.07v.21c.21-.14.42-.5.63-.78.84-1.28 1.55-2.64 2.25-3.99.35-.71.77-1.35 1.13-2.07.21-.36.42-.64.63-1 .14-.14.28-.36.42-.5l.14-.14c.07-.07.14-.07.21-.14.14-.07.35-.07.49 0 .21.14.28.29.35.5v.5c0 .29-.07.5-.14.78-.14.5-.28.93-.42 1.43-.28.93-.56 1.85-.78 2.78-.42 1.85-.77 3.78-.28 5.56.28.93.7 1.71 1.41 2.28.7.57 1.55.93 2.46 1 .49.07.92.07 1.41.07.49-.07.99-.07 1.41-.14.92-.14 1.9-.43 2.82-.71 2.46-.78 4.79-1.85 7.04-2.99 2.25-1.14 4.51-2.42 6.62-3.71 4.29-2.64 8.45-5.42 12.25-8.48 1.9-1.57 3.73-3.14 5.35-4.92.77-.93 1.55-1.85 1.83-2.85v-.07c-.07-.07-.14-.14-.28-.14-.21-.14-.49-.21-.78-.29-.56-.14-1.13-.21-1.69-.29-2.32-.29-4.65-.29-6.9-.36h-6.83c-8.94.14-17.46.57-25.48 1-7.95.43-15.42.86-22.17 1.28-13.51.93-24.5 1.64-32.1 2.14-3.8.21-6.76.43-8.73.57-.99.07-1.76.07-2.25.14h-.56c-.7-.57-.77-.57-.77-.57Z" class="cls-1"/></svg>