<?xml version="1.0" encoding="utf-8"?>
<!-- Generator: Adobe Adobe Illustrator 24.2.0, SVG Export Plug-In . SVG Version: 6.00 Build 0)  -->
<svg version="1.1" xmlns="http://www.w3.org/2000/svg" xmlns:xlink="http://www.w3.org/1999/xlink" x="0px" y="0px"
	 width="156.48px" height="55px" viewBox="0 0 156.48 55" style="enable-background:new 0 0 156.48 55;" xml:space="preserve">
<style type="text/css">
	.st0{display:none;fill:#F5F5F5;}
	.st1{fill:#FFFFFF;}
	.st2{display:none;}
	.st3{display:inline;fill:#46080E;}
	.st4{display:inline;fill:#F6F5F1;}
	.st5{display:none;fill:#E6E6E6;}
	.st6{display:none;fill:#F5F5F1;}
	.st7{display:none;fill:#FFFFFF;}
	.st8{fill:#3D090D;}
	.st9{fill:#F4F4F1;}
	.st10{fill:#F5F5F1;}
	.st11{fill:#3D080D;}
	.st12{clip-path:url(#SVGID_7_);}
	.st13{clip-path:url(#SVGID_8_);}
	.st14{clip-path:url(#SVGID_9_);}
	.st15{clip-path:url(#SVGID_10_);}
	.st16{clip-path:url(#SVGID_11_);}
	.st17{clip-path:url(#SVGID_12_);fill:#5B1316;}
	.st18{clip-path:url(#SVGID_19_);}
	.st19{clip-path:url(#SVGID_20_);}
	.st20{clip-path:url(#SVGID_21_);}
	.st21{clip-path:url(#SVGID_22_);}
	.st22{clip-path:url(#SVGID_23_);}
	.st23{clip-path:url(#SVGID_24_);fill:#F5F5F1;}
	.st24{clip-path:url(#SVGID_31_);}
	.st25{clip-path:url(#SVGID_32_);}
	.st26{clip-path:url(#SVGID_33_);}
	.st27{clip-path:url(#SVGID_34_);}
	.st28{clip-path:url(#SVGID_35_);}
	.st29{clip-path:url(#SVGID_36_);fill:#5B1316;}
	.st30{clip-path:url(#SVGID_43_);}
	.st31{clip-path:url(#SVGID_44_);}
	.st32{clip-path:url(#SVGID_45_);}
	.st33{clip-path:url(#SVGID_46_);}
	.st34{clip-path:url(#SVGID_47_);}
	.st35{clip-path:url(#SVGID_48_);fill:#F4F4F1;}
	.st36{fill:#F6F5F1;}
	.st37{opacity:0.502;fill:#F5F5F1;}
	.st38{opacity:0.5216;fill:#F5F5F1;}
	.st39{fill:#5B0F0A;}
	.st40{fill:#CEBEA5;}
	.st41{fill:#AB9A80;}
	.st42{fill:#F5F4F1;}
	.st43{fill:#5C1116;}
	.st44{fill:#CDBEA5;}
	.st45{fill:#5B1316;}
	.st46{opacity:0.5882;}
	.st47{fill:#5B100B;}
	.st48{fill:#CEBFA5;}
	.st49{fill:none;stroke:#B5B4AD;stroke-width:0.4728;stroke-miterlimit:10;}
	.st50{fill:#A18F72;}
	.st51{opacity:0.8588;}
	.st52{opacity:0.4902;}
	.st53{opacity:0.3098;}
	.st54{opacity:0.2902;}
	.st55{opacity:0.4902;fill:#F4F4F1;}
	.st56{display:inline;}
	.st57{opacity:0.4902;fill:#F5F5F1;}
</style>
<g id="Calque_3">
</g>
<g id="Calque_2" class="st2">
</g>
<g id="Calque_1">
	<g>
		<path class="st41" d="M8.59,8.14C9,7.33,9.6,6.7,10.37,6.26c0.77-0.44,1.68-0.66,2.72-0.66c0.88,0,1.65,0.16,2.29,0.47
			c0.64,0.31,1.13,0.75,1.46,1.33c0.33,0.57,0.49,1.24,0.47,2l-1.42-0.32C15.9,9,15.91,8.89,15.91,8.75c0-0.78-0.26-1.4-0.77-1.85
			c-0.52-0.45-1.2-0.68-2.04-0.68c-1.19,0-2.11,0.4-2.75,1.19C9.7,8.21,9.38,9.4,9.38,10.97c0,1.55,0.32,2.72,0.96,3.53
			c0.64,0.81,1.5,1.21,2.6,1.21c0.56,0,1.06-0.05,1.49-0.16c0.44-0.11,0.91-0.29,1.41-0.55V12.7c0-0.41-0.16-0.73-0.48-0.96
			c-0.32-0.23-0.93-0.4-1.82-0.49l0.03-0.32l4.8,0.54l-0.05,0.32c-0.06-0.01-0.15-0.02-0.27-0.02c-0.32,0-0.53,0.09-0.63,0.26
			c-0.11,0.17-0.16,0.45-0.16,0.83v1.97c-0.63,0.52-1.32,0.9-2.08,1.14c-0.75,0.24-1.5,0.36-2.25,0.36c-1.06,0-1.97-0.22-2.71-0.66
			c-0.74-0.44-1.31-1.07-1.69-1.87C8.15,13,7.96,12.05,7.96,10.97C7.96,9.89,8.17,8.95,8.59,8.14z"/>
		<path class="st41" d="M32.76,15.16c0.46-0.36,0.79-0.89,1-1.59c0.2-0.7,0.31-1.59,0.33-2.69l0.02-3.62c0-0.41-0.05-0.71-0.16-0.91
			c-0.11-0.19-0.32-0.29-0.63-0.29V5.75h2.2v0.32c-0.32,0-0.53,0.1-0.63,0.29c-0.11,0.2-0.16,0.5-0.16,0.91l-0.02,3.62
			c-0.02,1.25-0.14,2.27-0.37,3.05s-0.63,1.37-1.21,1.78c-0.58,0.41-1.39,0.62-2.43,0.62c-1.17,0-2.07-0.2-2.69-0.61
			c-0.63-0.41-1.06-1-1.29-1.77c-0.23-0.77-0.35-1.8-0.36-3.07V7.27c0-0.41-0.05-0.71-0.16-0.91c-0.1-0.19-0.32-0.29-0.63-0.29V5.75
			h3v0.32c-0.32,0-0.53,0.1-0.63,0.29c-0.11,0.2-0.16,0.5-0.16,0.91l-0.02,3.62c0,1.18,0.09,2.12,0.28,2.81
			c0.19,0.7,0.51,1.2,0.96,1.52c0.45,0.32,1.07,0.48,1.86,0.48C31.66,15.7,32.3,15.52,32.76,15.16z"/>
		<path class="st41" d="M43.33,15.86c0.32,0,0.53-0.1,0.63-0.29c0.1-0.19,0.16-0.5,0.16-0.91V7.27c0-0.41-0.05-0.71-0.16-0.91
			c-0.11-0.19-0.32-0.29-0.63-0.29V5.75h3v0.32c-0.32,0-0.53,0.1-0.63,0.29c-0.11,0.2-0.16,0.5-0.16,0.91v7.39
			c0,0.41,0.05,0.71,0.16,0.91c0.11,0.2,0.32,0.29,0.63,0.29v0.32h-3V15.86z"/>
		<path class="st41" d="M43.33,15.86c0.32,0,0.53-0.1,0.63-0.29c0.1-0.19,0.16-0.5,0.16-0.91V7.27c0-0.41-0.05-0.71-0.16-0.91
			c-0.11-0.19-0.32-0.29-0.63-0.29V5.75h3v0.32c-0.32,0-0.53,0.1-0.63,0.29c-0.11,0.2-0.16,0.5-0.16,0.91v7.39
			c0,0.41,0.05,0.71,0.16,0.91c0.11,0.2,0.32,0.29,0.63,0.29v0.32h-3V15.86z"/>
		<path class="st41" d="M54.46,16.18v-0.32c0.32,0,0.53-0.1,0.63-0.29c0.1-0.19,0.16-0.5,0.16-0.91V7.27c0-0.41-0.05-0.71-0.16-0.91
			c-0.11-0.19-0.32-0.29-0.63-0.29V5.75h3v0.32c-0.32,0-0.53,0.1-0.63,0.29c-0.11,0.2-0.16,0.5-0.16,0.91v8.91H54.46z M61.81,16.18
			l0.05-0.32l0.22-1.88l-0.3-0.05c-0.08,0.62-0.24,1.05-0.46,1.27c-0.22,0.23-0.54,0.34-0.95,0.34h-3.7v0.63H61.81z"/>
		<path class="st41" d="M70.21,16.18v-0.32c0.32,0,0.53-0.1,0.63-0.29c0.1-0.19,0.16-0.5,0.16-0.91V7.27c0-0.41-0.05-0.71-0.16-0.91
			c-0.11-0.19-0.32-0.29-0.63-0.29V5.75h3v0.32c-0.32,0-0.53,0.1-0.63,0.29c-0.11,0.2-0.16,0.5-0.16,0.91v8.91H70.21z M77.56,16.18
			l0.05-0.32l0.22-1.88l-0.3-0.05c-0.08,0.62-0.24,1.05-0.46,1.27c-0.22,0.23-0.54,0.34-0.95,0.34h-3.7v0.63H77.56z"/>
		<path class="st41" d="M95.56,14.76c0.14,0.37,0.32,0.65,0.56,0.83c0.24,0.18,0.54,0.28,0.92,0.28v0.32H93v-0.32
			c0.43,0,0.74-0.04,0.92-0.13c0.18-0.08,0.27-0.22,0.27-0.39c0-0.13-0.05-0.32-0.14-0.58l-1.28-3.33h-3.7l-1.28,3.33
			c-0.09,0.26-0.14,0.46-0.14,0.58c0,0.18,0.09,0.31,0.27,0.39c0.18,0.08,0.48,0.13,0.92,0.13v0.32h-3.19v-0.32
			c0.38,0,0.69-0.09,0.92-0.28c0.24-0.18,0.42-0.46,0.56-0.83l3.03-7.88c0.04-0.13,0.06-0.25,0.06-0.36c0-0.15-0.06-0.26-0.18-0.33
			c-0.12-0.07-0.33-0.11-0.64-0.11V5.75h2.7L95.56,14.76z M92.53,10.79l-1.61-4.15l-1.6,4.15H92.53z"/>
		<path class="st41" d="M110.96,15.16c0.46-0.36,0.79-0.89,1-1.59c0.2-0.7,0.31-1.59,0.33-2.69l0.02-3.62
			c0-0.41-0.05-0.71-0.16-0.91c-0.11-0.19-0.32-0.29-0.63-0.29V5.75h2.2v0.32c-0.32,0-0.53,0.1-0.63,0.29
			c-0.11,0.2-0.16,0.5-0.16,0.91l-0.02,3.62c-0.02,1.25-0.14,2.27-0.37,3.05s-0.63,1.37-1.21,1.78c-0.58,0.41-1.39,0.62-2.43,0.62
			c-1.17,0-2.07-0.2-2.69-0.61c-0.63-0.41-1.06-1-1.29-1.77c-0.23-0.77-0.35-1.8-0.36-3.07V7.27c0-0.41-0.05-0.71-0.16-0.91
			c-0.1-0.19-0.32-0.29-0.63-0.29V5.75h3v0.32c-0.32,0-0.53,0.1-0.63,0.29c-0.11,0.2-0.16,0.5-0.16,0.91l-0.02,3.62
			c0,1.18,0.09,2.12,0.28,2.81c0.19,0.7,0.51,1.2,0.96,1.52c0.45,0.32,1.07,0.48,1.86,0.48C109.86,15.7,110.5,15.52,110.96,15.16z"
			/>
		<path class="st41" d="M121.53,15.86c0.32,0,0.53-0.1,0.63-0.29c0.1-0.19,0.16-0.5,0.16-0.91V7.27c0-0.41-0.05-0.71-0.16-0.91
			c-0.11-0.19-0.32-0.29-0.63-0.29V5.75h0.95c0.37,0,0.65,0.03,0.85,0.09c0.2,0.06,0.39,0.2,0.58,0.42
			c0.18,0.22,0.39,0.57,0.62,1.07l3.85,8.12l3.71-8.12c0.47-1.02,1.12-1.55,1.94-1.58l0.95-0.02v0.32
			c-0.32,0.01-0.53,0.11-0.63,0.31c-0.11,0.2-0.16,0.5-0.16,0.91v7.39c0,0.41,0.05,0.71,0.16,0.91c0.11,0.2,0.32,0.29,0.63,0.29
			v0.32h-3v-0.32c0.32,0,0.53-0.1,0.63-0.29c0.1-0.19,0.16-0.5,0.16-0.91V7.33l-4.03,8.85h-1.58l-4.22-8.85v7.33
			c0,0.41,0.05,0.71,0.16,0.91c0.1,0.2,0.32,0.29,0.63,0.29v0.32h-2.21V15.86z"/>
		<path class="st41" d="M143.75,6.36c-0.11-0.19-0.32-0.29-0.63-0.29V5.75h2.21v4.82h2.18c0.41,0,0.71-0.05,0.91-0.16
			c0.19-0.11,0.29-0.32,0.29-0.63h0.32v2.21h-0.32c0-0.32-0.1-0.53-0.29-0.63c-0.19-0.11-0.5-0.16-0.91-0.16h-2.18v4.98h-2.21v-0.32
			c0.32,0,0.53-0.1,0.63-0.29c0.1-0.19,0.16-0.5,0.16-0.91V7.27C143.91,6.86,143.86,6.56,143.75,6.36z M149.82,6.72
			c0.22,0.23,0.37,0.65,0.46,1.27l0.3-0.05l-0.22-1.88l-0.05-0.32h-4.98v0.63h3.54C149.28,6.39,149.6,6.5,149.82,6.72z
			 M145.33,16.18h5.13l0.05-0.32l0.22-1.88l-0.3-0.05c-0.08,0.62-0.24,1.05-0.46,1.27c-0.22,0.23-0.54,0.34-0.95,0.34h-3.7V16.18z"
			/>
	</g>
	<g>
		<path class="st41" d="M24.07,21.94c-0.65-0.26-1.32-0.3-2-0.3c-3.4,0-6.8,0-10.2,0c-0.09,0-0.17,0-0.28,0c0,4.09,0,8.16,0,12.25
			c0.08,0.01,0.16,0.02,0.24,0.02c2.37,0,4.73,0.01,7.1-0.01c0.62-0.01,1.24-0.07,1.84-0.2c0.86-0.18,1.2-0.6,1.32-1.48
			c0.02-0.17,0.04-0.35,0.06-0.55c0.21,0,0.41,0,0.64,0c0,2.01,0,4.02,0,6.05c-0.2,0-0.4,0-0.63,0c-0.01-0.07-0.02-0.14-0.03-0.21
			c-0.03-0.21-0.04-0.43-0.09-0.64c-0.15-0.7-0.62-1.08-1.3-1.2c-0.55-0.09-1.11-0.18-1.67-0.18c-2.42-0.02-4.83-0.01-7.25-0.01
			c-0.06,0-0.13,0.01-0.22,0.02c0,4.25,0,8.49,0,12.74c0.1,0.01,0.18,0.01,0.27,0.01c3.56,0,7.11,0.01,10.67-0.01
			c0.48,0,0.98-0.05,1.45-0.14c0.95-0.17,1.57-0.78,1.95-1.64c0.35-0.78,0.52-1.62,0.66-2.46c0.02-0.1,0.04-0.2,0.07-0.32
			c0.22,0.03,0.41,0.05,0.65,0.09c-0.29,2.03-0.57,4.03-0.86,6.05c-6.68,0-13.36,0-20.06,0c0-0.21,0-0.43,0-0.66
			c0.26-0.04,0.51-0.06,0.75-0.11c0.65-0.12,1.06-0.51,1.24-1.15c0.17-0.61,0.23-1.24,0.23-1.86c0.01-1.77,0.01-3.53,0.01-5.3
			c0-4.34,0-8.68,0-13.02c0-1.46,0-2.93-0.03-4.39c-0.01-0.48-0.11-0.95-0.21-1.42c-0.15-0.65-0.59-1.02-1.25-1.14
			c-0.24-0.04-0.48-0.07-0.74-0.1c0-0.21,0-0.42,0-0.65c6.53,0,13.05,0,19.6,0c0.29,2.01,0.57,4.01,0.86,6.04
			c-0.24,0.03-0.44,0.06-0.66,0.09c-0.09-0.45-0.16-0.86-0.25-1.27c-0.15-0.68-0.34-1.35-0.71-1.95
			C24.96,22.51,24.59,22.15,24.07,21.94z"/>
		<path class="st41" d="M60.82,34.37c-0.01,0.1-0.02,0.17-0.02,0.24c0,3.81,0,7.61,0.01,11.42c0,0.65,0.06,1.28,0.24,1.91
			c0.22,0.78,0.77,1.1,1.52,1.19c0.15,0.02,0.31,0.03,0.48,0.04c0,0.22,0,0.42,0,0.66c-2.47,0-4.94,0-7.42,0c0-0.23,0-0.43,0-0.65
			c0.24-0.03,0.48-0.06,0.71-0.09c0.75-0.12,1.2-0.58,1.33-1.31c0.1-0.59,0.19-1.19,0.2-1.78c0.03-1.33,0.01-2.67,0.01-4
			c0-5.9,0-11.8-0.01-17.71c0-0.66-0.05-1.32-0.14-1.97c-0.16-1.11-0.69-1.57-1.81-1.64c-0.09-0.01-0.18-0.01-0.28-0.02
			c0-0.22,0-0.43,0-0.67c2.48,0,4.94,0,7.42,0c0,0.24,0,0.44,0,0.65c-0.23,0.03-0.44,0.05-0.65,0.08c-0.78,0.11-1.26,0.55-1.39,1.31
			c-0.1,0.56-0.18,1.13-0.19,1.7c-0.03,1.16,0,2.32,0,3.49c0,1.74-0.01,3.48-0.01,5.22c0,0.1,0.01,0.2,0.02,0.33
			c5.87,0,8.52,0,14.4,0c0.01-0.1,0.02-0.18,0.02-0.27c0-1.66,0-3.32,0-4.98c0-1.41,0-2.81-0.04-4.22
			c-0.01-0.48-0.11-0.97-0.22-1.44c-0.15-0.64-0.59-0.99-1.22-1.11c-0.25-0.05-0.5-0.07-0.77-0.11c0-0.21,0-0.42,0-0.66
			c2.47,0,4.94,0,7.43,0c0,0.22,0,0.43,0,0.66c-0.16,0.02-0.32,0.03-0.47,0.05c-1.03,0.14-1.47,0.55-1.63,1.57
			c-0.08,0.5-0.13,1-0.14,1.5c-0.02,1.02-0.01,2.04-0.01,3.07c0,6.18,0,12.37,0,18.55c0,0.54,0.03,1.08,0.07,1.62
			c0.02,0.29,0.08,0.59,0.16,0.87c0.22,0.8,0.69,1.17,1.56,1.25c0.15,0.01,0.29,0.02,0.46,0.04c0,0.22,0,0.43,0,0.67
			c-2.46,0-4.94,0-7.43,0c0-0.21,0-0.43,0-0.66c0.26-0.04,0.51-0.06,0.75-0.11c0.66-0.12,1.06-0.51,1.25-1.15
			c0.18-0.62,0.23-1.25,0.23-1.89c0.01-2.48,0.01-4.96,0.01-7.44c0-1.3,0-2.59,0-3.89c0-0.1,0-0.19,0-0.34
			C72.21,34.37,63.68,34.37,60.82,34.37z"/>
		<path class="st41" d="M30.43,40.13c0-4.15,0-8.27,0-12.39c0-1.46,0-2.93-0.03-4.39c-0.01-0.44-0.09-0.88-0.18-1.32
			c-0.15-0.75-0.63-1.16-1.38-1.27c-0.21-0.03-0.42-0.05-0.65-0.08c0-0.22,0-0.43,0-0.66c2.48,0,4.95,0,7.43,0c0,0.23,0,0.44,0,0.67
			c-0.11,0.01-0.21,0.02-0.32,0.03c-1.09,0.07-1.62,0.53-1.79,1.61c-0.08,0.48-0.13,0.97-0.13,1.46c-0.02,1.15,0.01,2.31,0,3.46
			c0,4.22-0.01,8.44-0.01,12.66c0,2.68,0,5.36,0,8.04c0,0.1,0.01,0.2,0.02,0.32c0.11,0.01,0.19,0.01,0.28,0.01
			c3.55,0,7.09,0.01,10.64-0.01c0.51,0,1.02-0.05,1.52-0.14c1.02-0.19,1.63-0.88,2-1.8c0.29-0.72,0.45-1.47,0.57-2.23
			c0.02-0.11,0.04-0.23,0.07-0.37c0.22,0.03,0.42,0.05,0.66,0.08c-0.29,2.03-0.57,4.02-0.86,6.05c-6.7,0-13.39,0-20.09,0
			c0-0.21,0-0.42,0-0.65c0.26-0.04,0.51-0.06,0.76-0.1c0.65-0.12,1.06-0.5,1.25-1.15c0.17-0.61,0.23-1.24,0.23-1.87
			C30.43,44.11,30.42,42.13,30.43,40.13z"/>
		<path class="st41" d="M110.97,49.87c-0.53,0-1.04,0-1.55,0c-0.45,0-0.9,0.01-1.35,0.01c-0.46,0-0.93,0-1.39,0
			c-0.49,0-0.99,0-1.48,0c-0.1,0-0.2,0-0.32,0c0-0.25,0-0.46,0-0.69c0.12-0.01,0.22-0.02,0.32-0.02c0.68-0.01,1.36-0.04,2.02-0.22
			c0.11-0.03,0.23-0.07,0.33-0.12c0.65-0.28,0.92-0.74,0.73-1.42c-0.18-0.65-0.42-1.29-0.68-1.92c-1.14-2.85-2.29-5.69-3.43-8.53
			c-0.12-0.31-0.25-0.62-0.37-0.93c-0.02-0.06-0.06-0.11-0.09-0.18c-3.68,0-7.35,0-11.05,0c-0.09,0.21-0.18,0.43-0.27,0.65
			c-1.28,3.18-2.56,6.36-3.83,9.54c-0.18,0.44-0.34,0.89-0.45,1.34c-0.18,0.73,0.09,1.26,0.81,1.47c0.53,0.16,1.1,0.22,1.65,0.29
			c0.3,0.04,0.62,0.01,0.95,0.01c0,0.27,0,0.48,0,0.71c-2.94,0-5.9,0-8.87,0c0-0.23,0-0.43,0-0.67c0.12-0.01,0.22-0.02,0.33-0.03
			c0.67-0.02,1.31-0.14,1.9-0.47c0.66-0.36,1.12-0.93,1.46-1.58c0.37-0.72,0.7-1.47,1.01-2.22c2.27-5.61,4.52-11.23,6.78-16.85
			c0.71-1.76,1.42-3.53,2.12-5.3c0.08-0.2,0.12-0.41,0.16-0.62c0.11-0.69-0.18-1.14-0.87-1.28c-0.4-0.08-0.81-0.1-1.21-0.14
			c-0.09-0.01-0.17-0.01-0.27-0.02c0-0.23,0-0.43,0-0.66c2.15,0,4.29,0,6.45,0c0.13,0.33,0.27,0.67,0.41,1.01
			c0.8,1.97,1.59,3.94,2.39,5.91c1.74,4.29,3.47,8.59,5.21,12.88c0.83,2.04,1.64,4.1,2.49,6.13c0.24,0.58,0.56,1.13,0.9,1.66
			c0.65,1.02,1.63,1.47,2.8,1.54c0.16,0.01,0.32,0.02,0.49,0.03c0.02,0,0.04,0.02,0.08,0.04c0,0.2,0,0.41,0,0.64
			C113.83,49.87,112.41,49.87,110.97,49.87z M99.2,24.55c-0.31-0.77-0.62-1.54-0.93-2.31c-0.02,0-0.05,0-0.07,0
			c-1.61,3.99-3.22,7.98-4.83,11.99c3.27,0,6.49,0,9.74,0C101.79,30.99,100.5,27.79,99.2,24.55z"/>
		<path class="st41" d="M119.41,23.86c-0.02-0.66-0.06-1.29-0.23-1.91c-0.18-0.68-0.62-1.05-1.3-1.17c-0.23-0.04-0.45-0.06-0.7-0.09
			c0-0.21,0-0.42,0-0.66c2.47,0,4.94,0,7.42,0c0,0.22,0,0.43,0,0.66c-0.07,0.01-0.14,0.02-0.21,0.03c-0.21,0.03-0.41,0.04-0.61,0.09
			c-0.68,0.14-1.08,0.57-1.21,1.23c-0.1,0.54-0.15,1.1-0.21,1.65c-0.02,0.25-0.01,0.5-0.01,0.75c0,5.35,0,10.7,0,16.05
			c0,1.72-0.02,3.45,0.01,5.17c0.01,0.69,0.07,1.39,0.19,2.07c0.18,0.95,0.69,1.35,1.66,1.43c0.12,0.01,0.25,0.02,0.39,0.03
			c0,0.23,0,0.44,0,0.67c-2.47,0-4.94,0-7.42,0c0-0.23,0-0.44,0-0.66c0.27-0.04,0.52-0.07,0.77-0.11c0.62-0.12,1.03-0.49,1.21-1.1
			c0.19-0.64,0.25-1.29,0.25-1.95c0.01-1.66,0.01-3.32,0.01-4.97C119.42,35.34,119.41,29.61,119.41,23.86z"/>
		<path class="st41" d="M137.76,32.67c2.37,0.27,4.1,1.52,5.44,3.39c0.81,1.14,1.4,2.41,1.96,3.68c0.66,1.48,1.27,2.98,1.92,4.47
			c0.43,0.98,0.85,1.96,1.46,2.84c0.56,0.82,1.24,1.52,2.21,1.84c0.46,0.15,0.95,0.19,1.43,0.28c0.09,0.02,0.17,0.01,0.28,0.02
			c0,0.23,0,0.44,0,0.68c-0.12,0-0.25,0-0.37,0c-0.37-0.01-0.73-0.02-1.1-0.05c-0.51-0.04-1.03-0.08-1.54-0.16
			c-1.37-0.2-2.59-0.69-3.5-1.78c-0.58-0.69-0.98-1.48-1.38-2.27c-0.76-1.52-1.31-3.13-1.95-4.69c-0.5-1.21-1-2.43-1.59-3.59
			c-0.82-1.6-2.18-2.56-3.91-3c-0.81-0.21-1.63-0.28-2.47-0.28c-0.1,0-0.23,0.03-0.3,0.1c-0.82,0.79-1.63,1.6-2.44,2.4
			c-0.03,0.03-0.05,0.06-0.08,0.1c0,0.08,0,0.17,0,0.25c0,2.91,0,5.82,0,8.73c0,0.73,0.02,1.45,0.2,2.16
			c0.23,0.89,0.67,1.27,1.58,1.37c0.15,0.02,0.29,0.02,0.46,0.04c0,0.22,0,0.43,0,0.67c-2.46,0-4.92,0-7.41,0c0-0.22,0-0.43,0-0.67
			c0.15-0.01,0.29-0.02,0.43-0.03c0.94-0.09,1.44-0.51,1.62-1.43c0.1-0.54,0.13-1.1,0.19-1.65c0.02-0.18,0.01-0.37,0.01-0.56
			c0-7.07,0-14.13-0.01-21.2c0-0.69-0.04-1.4-0.16-2.08c-0.19-1.08-0.7-1.48-1.79-1.55c-0.09-0.01-0.17-0.01-0.28-0.02
			c0-0.23,0-0.44,0-0.67c2.48,0,4.94,0,7.43,0c0,0.23,0,0.43,0,0.65c-0.06,0.01-0.12,0.03-0.17,0.03c-0.1,0.01-0.21,0.01-0.31,0.03
			c-1.02,0.14-1.47,0.56-1.62,1.58c-0.08,0.5-0.13,1.02-0.13,1.52c-0.02,1.14,0.01,2.28,0.01,3.42c0,2.24-0.01,4.49-0.02,6.73
			c0,0.1,0,0.2,0,0.37c0.1-0.07,0.16-0.11,0.2-0.15c2.33-2.26,4.66-4.52,6.99-6.77c1.65-1.6,3.31-3.2,4.96-4.81
			c0.31-0.3,0.6-0.62,0.87-0.95c0.31-0.39,0.24-0.65-0.25-0.76c-0.51-0.11-1.04-0.15-1.56-0.2c-0.28-0.03-0.57,0-0.88,0
			c0-0.25,0-0.46,0-0.69c3.11,0,6.23,0,9.36,0c0,0.23,0,0.44,0,0.66c-0.36,0.03-0.71,0.05-1.06,0.07c-1.82,0.13-3.33,0.9-4.62,2.17
			c-1.37,1.35-2.75,2.69-4.13,4.04c-1.77,1.73-3.54,3.46-5.31,5.18c-0.11,0.11-0.23,0.22-0.14,0.43
			C136.74,32.6,137.24,32.63,137.76,32.67z"/>
	</g>
</g>
</svg>
