<?xml version="1.0" encoding="utf-8"?>
<!-- Generator: Adobe Adobe Illustrator 24.2.0, SVG Export Plug-In . SVG Version: 6.00 Build 0)  -->
<svg version="1.1" xmlns="http://www.w3.org/2000/svg" xmlns:xlink="http://www.w3.org/1999/xlink" x="0px" y="0px" width="55px"
	 height="80px" viewBox="0 0 55 80" style="enable-background:new 0 0 55 80;" xml:space="preserve">
<style type="text/css">
	.st0{display:none;fill:#F5F5F5;}
	.st1{fill:#FFFFFF;}
	.st2{display:none;}
	.st3{display:inline;fill:#46080E;}
	.st4{display:inline;fill:#F6F5F1;}
	.st5{display:none;fill:#E6E6E6;}
	.st6{display:none;fill:#F5F5F1;}
	.st7{display:none;fill:#FFFFFF;}
	.st8{fill:#3D090D;}
	.st9{fill:#F4F4F1;}
	.st10{fill:#F5F5F1;}
	.st11{fill:#3D080D;}
	.st12{clip-path:url(#SVGID_7_);}
	.st13{clip-path:url(#SVGID_8_);}
	.st14{clip-path:url(#SVGID_9_);}
	.st15{clip-path:url(#SVGID_10_);}
	.st16{clip-path:url(#SVGID_11_);}
	.st17{clip-path:url(#SVGID_12_);fill:#5B1316;}
	.st18{clip-path:url(#SVGID_19_);}
	.st19{clip-path:url(#SVGID_20_);}
	.st20{clip-path:url(#SVGID_21_);}
	.st21{clip-path:url(#SVGID_22_);}
	.st22{clip-path:url(#SVGID_23_);}
	.st23{clip-path:url(#SVGID_24_);fill:#F5F5F1;}
	.st24{clip-path:url(#SVGID_31_);}
	.st25{clip-path:url(#SVGID_32_);}
	.st26{clip-path:url(#SVGID_33_);}
	.st27{clip-path:url(#SVGID_34_);}
	.st28{clip-path:url(#SVGID_35_);}
	.st29{clip-path:url(#SVGID_36_);fill:#5B1316;}
	.st30{clip-path:url(#SVGID_43_);}
	.st31{clip-path:url(#SVGID_44_);}
	.st32{clip-path:url(#SVGID_45_);}
	.st33{clip-path:url(#SVGID_46_);}
	.st34{clip-path:url(#SVGID_47_);}
	.st35{clip-path:url(#SVGID_48_);fill:#F4F4F1;}
	.st36{fill:#F6F5F1;}
	.st37{opacity:0.502;fill:#F5F5F1;}
	.st38{opacity:0.5216;fill:#F5F5F1;}
	.st39{fill:#5B0F0A;}
	.st40{fill:#CEBEA5;}
	.st41{fill:#AB9A80;}
	.st42{fill:#F5F4F1;}
	.st43{fill:#5C1116;}
	.st44{fill:#CDBEA5;}
	.st45{fill:#5B1316;}
	.st46{opacity:0.5882;}
	.st47{fill:#5B100B;}
	.st48{fill:#CEBFA5;}
	.st49{fill:none;stroke:#B5B4AD;stroke-width:0.4728;stroke-miterlimit:10;}
	.st50{fill:#A18F72;}
	.st51{opacity:0.8588;}
	.st52{opacity:0.4902;}
	.st53{opacity:0.3098;}
	.st54{opacity:0.2902;}
	.st55{opacity:0.4902;fill:#F4F4F1;}
	.st56{display:inline;}
	.st57{opacity:0.4902;fill:#F5F5F1;}
</style>
<g id="Calque_3">
</g>
<g id="Calque_2" class="st2">
</g>
<g id="Calque_1">
	<g>
		<g>
			<path class="st10" d="M49.61,24.63c-0.64-2.56-1.54-5-2.85-7.27c-2.19-3.79-5.34-6.49-9.47-8c-2.17-0.79-4.43-1.14-6.72-1.39
				c-3.68-0.42-7.3-0.05-10.81,0.99c-4.72,1.39-8.29,4.36-10.7,8.66c-1.3,2.33-2.31,4.79-2.83,7.43c-0.42,2.12-0.98,4.22-1.21,6.36
				c-0.29,2.68-0.42,5.39-0.44,8.09c-0.05,5.18,0.05,10.35,1.13,15.45c0.6,2.87,1.4,5.67,2.7,8.31c2.97,6.01,7.84,9.47,14.41,10.44
				c2.4,0.35,4.87,0.36,7.3,0.3c2.83-0.06,5.6-0.61,8.26-1.8c2.84-1.22,5.17-3.02,7.03-5.44c3.15-4.11,4.43-8.94,5.19-13.93
				c0.36-2.35,0.48-4.76,0.59-7.14C51.5,38.6,51.35,31.56,49.61,24.63z M49.48,43.98c-0.09,2.97-0.36,5.96-0.8,8.91
				c-0.54,3.61-1.5,7.13-3.34,10.34c-2.08,3.62-4.99,6.21-8.96,7.69c-4,1.49-8.1,1.56-12.2,1.13c-4.96-0.51-9.18-2.66-12.23-6.75
				c-1.47-1.97-2.53-4.16-3.28-6.5c-0.3-0.91-0.55-1.84-0.82-2.76c-0.26-1.28-0.55-2.45-0.73-3.64c-0.66-4.35-0.96-8.74-0.77-13.13
				c0.13-3.2,0.36-6.4,0.8-9.57c0.52-3.67,1.51-7.25,3.31-10.55c2.28-4.18,5.6-7.12,10.22-8.49c2.89-0.86,5.85-1.17,8.85-0.96
				c4.11,0.29,8.03,1.21,11.36,3.86c2.5,1.99,4.33,4.49,5.47,7.43c0.79,2.04,1.39,4.17,1.9,6.3C49.54,32.78,49.65,38.39,49.48,43.98
				z"/>
			<path class="st10" d="M46.6,26.19c-0.55-2.32-1.33-4.52-2.45-6.58c-1.88-3.43-4.6-5.87-8.16-7.24c-1.87-0.72-3.82-1.03-5.79-1.26
				c-3.18-0.37-6.29-0.05-9.31,0.89c-4.06,1.26-7.14,3.95-9.22,7.83c-1.12,2.11-1.99,4.33-2.44,6.72c-0.36,1.92-0.84,3.82-1.04,5.76
				c-0.26,2.42-0.37,4.87-0.39,7.32C7.76,44.3,7.85,48.98,8.77,53.6c0.52,2.6,1.2,5.13,2.33,7.51c2.56,5.43,6.75,8.56,12.41,9.44
				c2.06,0.32,4.19,0.32,6.28,0.27c2.44-0.06,4.82-0.55,7.12-1.63c2.45-1.1,4.46-2.73,6.05-4.91c2.72-3.72,3.82-8.09,4.47-12.6
				c0.31-2.13,0.41-4.3,0.51-6.46C48.23,38.82,48.11,32.46,46.6,26.19z M35.11,45.75h-5.14c0.02,0.39,0.06,2.57-1.08,4.46
				c-2.88,4.78-8.44,3.38-9.69,2.84c-0.99-0.43-1.89-0.94-2.64-1.64c-0.75-0.7-1.34-1.56-1.77-2.58c-0.44-1.02-0.66-2.01-0.66-2.98
				c0-0.96,0.09-1.76,0.27-2.41c0.32-1.16,0.83-2.11,1.51-2.84c0.69-0.73,1.52-1.44,2.41-2.05v-0.01c-0.82-0.64-1.39-1.24-1.62-1.71
				c-0.23-0.47-0.35-1.02-0.35-1.66c0-1.33,0.42-2.41,1.25-3.25c0.83-0.83,1.89-1.25,3.16-1.25c0.45,0,1.01,0.12,1.68,0.36
				c0.13,0.05,0.36-0.03,0.52-0.14c0.16-0.1,0.35-0.27,0.35-0.27l0.56,0.48c0,0-0.01,0.06-0.02,0.23c-0.04,0.7,0.83,3.94,0.83,3.94
				l-0.78,0.29c0,0-0.65-1.4-0.89-1.85c-0.42-0.81-1.1-1.18-1.98-1.18c-0.87,0-1.54,0.23-2.01,0.69c-0.47,0.46-0.7,1.1-0.7,1.91
				c0,0.45,0.16,0.88,0.48,1.27c0.67,0.82,1.59,1.22,2.74,1.22h1.8l0,1.82h-1.8c-1.05,0-2.04,0.34-2.98,1.02
				c-1.64,1.19-2.46,2.76-2.47,4.74c0,0.8,0.2,1.58,0.6,2.34c0.4,0.76,0.92,1.4,1.56,1.94c0.64,0.54,1.36,0.98,2.18,1.3
				c0.82,0.32,1.56,0.49,2.23,0.49c0.67,0,1.24-0.07,1.71-0.21c0.46-0.14,0.86-0.33,1.19-0.56c0.32-0.23,0.62-0.51,0.89-0.82
				c0.46-0.54,0.76-1.15,1.02-1.8c0.21-0.57,0.21-1.77,0.2-2.14h-5.67c-0.88-0.01-1.1,0.22-1.5,0.62l-0.26,0.3l-0.53-0.18l1.12-2.79
				l12.62,0.01c0.68,0,1-0.14,1.49-0.61l0.32-0.41l0.5,0L35.11,45.75z M41.28,54.92c0.15,0.15,0.37,0.15,0.37,0.15v0.5h-4.28v-0.5
				c0,0,0.14-0.01,0.22-0.05c0.06-0.03,0.15-0.09,0.25-0.19c0.1-0.1,0.21-0.29,0.32-0.56c0.11-0.27,0.17-0.55,0.17-0.82v-14H30v0.81
				c0,0.59,0.19,1.09,0.58,1.47c0.16,0.15,0.38,0.16,0.38,0.16v0.5h-4.28l0-0.5c0,0,0.14-0.01,0.22-0.05
				c0.06-0.03,0.15-0.09,0.25-0.19c0.1-0.1,0.21-0.29,0.32-0.56c0.11-0.27,0.17-0.55,0.17-0.82V27.76c0-0.59-0.2-1.07-0.58-1.47
				c-0.14-0.15-0.37-0.15-0.37-0.15v-0.5h4.28v0.5c0,0-0.28,0.05-0.47,0.25c-0.1,0.1-0.21,0.29-0.32,0.56
				C30.06,27.21,30,27.49,30,27.76v9.85h8.34v-6.78c0-0.59-0.21-1.07-0.58-1.47c-0.14-0.14-0.38-0.15-0.38-0.15v-0.5h4.28l0,0.5
				c0,0-0.29,0.05-0.47,0.24c-0.1,0.1-0.21,0.29-0.32,0.56c-0.11,0.27-0.17,0.55-0.17,0.82v22.62
				C40.7,54.04,40.89,54.54,41.28,54.92z"/>
		</g>
	</g>
</g>
</svg>
