<?xml version="1.0" encoding="utf-8"?>
<!-- Generator: Adobe Adobe Illustrator 24.2.0, SVG Export Plug-In . SVG Version: 6.00 Build 0)  -->
<svg version="1.1" xmlns="http://www.w3.org/2000/svg" xmlns:xlink="http://www.w3.org/1999/xlink" x="0px" y="0px" width="229px"
	 height="99px" viewBox="0 0 229 99" style="enable-background:new 0 0 229 99;" xml:space="preserve">
<style type="text/css">
	.st0{display:none;fill:#F5F5F5;}
	.st1{fill:#FFFFFF;}
	.st2{display:none;}
	.st3{display:inline;fill:#46080E;}
	.st4{display:inline;fill:#F6F5F1;}
	.st5{display:none;fill:#E6E6E6;}
	.st6{display:none;fill:#F5F5F1;}
	.st7{display:none;fill:#FFFFFF;}
	.st8{fill:#3D090D;}
	.st9{fill:#F4F4F1;}
	.st10{fill:#F5F5F1;}
	.st11{fill:#3D080D;}
	.st12{clip-path:url(#SVGID_7_);}
	.st13{clip-path:url(#SVGID_8_);}
	.st14{clip-path:url(#SVGID_9_);}
	.st15{clip-path:url(#SVGID_10_);}
	.st16{clip-path:url(#SVGID_11_);}
	.st17{clip-path:url(#SVGID_12_);fill:#5B1316;}
	.st18{clip-path:url(#SVGID_19_);}
	.st19{clip-path:url(#SVGID_20_);}
	.st20{clip-path:url(#SVGID_21_);}
	.st21{clip-path:url(#SVGID_22_);}
	.st22{clip-path:url(#SVGID_23_);}
	.st23{clip-path:url(#SVGID_24_);fill:#F5F5F1;}
	.st24{clip-path:url(#SVGID_31_);}
	.st25{clip-path:url(#SVGID_32_);}
	.st26{clip-path:url(#SVGID_33_);}
	.st27{clip-path:url(#SVGID_34_);}
	.st28{clip-path:url(#SVGID_35_);}
	.st29{clip-path:url(#SVGID_36_);fill:#5B1316;}
	.st30{clip-path:url(#SVGID_43_);}
	.st31{clip-path:url(#SVGID_44_);}
	.st32{clip-path:url(#SVGID_45_);}
	.st33{clip-path:url(#SVGID_46_);}
	.st34{clip-path:url(#SVGID_47_);}
	.st35{clip-path:url(#SVGID_48_);fill:#F4F4F1;}
	.st36{fill:#F6F5F1;}
	.st37{opacity:0.502;fill:#F5F5F1;}
	.st38{opacity:0.5216;fill:#F5F5F1;}
	.st39{fill:#5B0F0A;}
	.st40{fill:#CEBEA5;}
	.st41{fill:#AB9A80;}
	.st42{fill:#F5F4F1;}
	.st43{fill:#5C1116;}
	.st44{fill:#CDBEA5;}
	.st45{fill:#5B1316;}
	.st46{opacity:0.5882;}
	.st47{fill:#5B100B;}
	.st48{fill:#CEBFA5;}
	.st49{fill:none;stroke:#B5B4AD;stroke-width:0.4728;stroke-miterlimit:10;}
	.st50{fill:#A18F72;}
	.st51{opacity:0.8588;}
	.st52{opacity:0.4902;}
	.st53{opacity:0.3098;}
	.st54{opacity:0.2902;}
	.st55{opacity:0.4902;fill:#F4F4F1;}
	.st56{display:inline;}
	.st57{opacity:0.4902;fill:#F5F5F1;}
</style>
<g id="Calque_3">
</g>
<g id="Calque_2" class="st2">
</g>
<g id="Calque_1">
	<path class="st39" d="M32.37,69.7c-0.84,1.32-1.66,2.53-2.47,3.74c-0.09,0.13-0.21,0.25-0.26,0.39c-0.64,1.87-1.85,3.39-2.99,4.95
		c-0.68,0.93-1.47,1.77-2.2,2.66c-0.2,0.24-0.37,0.5-0.57,0.74c-0.48,0.61-0.96,1.23-1.46,1.84c-0.3,0.37-0.67,0.68-0.92,1.07
		c-1.2,1.87-3.02,2.65-5.09,3.03c-0.21,0.04-0.41,0.08-0.71,0.2c-1.23,0.24-2.38,0.37-3.52,0.57c-0.77,0.14-1.45-0.09-2.15-0.31
		c-0.86-0.27-1.27-0.89-1.36-1.75c-0.09-0.86,0.25-1.58,0.98-2c0.58-0.33,1.24-0.58,1.89-0.74c1.35-0.32,2.61-0.81,3.78-1.54
		c0.35-0.22,0.68-0.49,1.08-0.81c0.58-0.66,1.1-1.25,1.61-1.84c1-1.14,1.89-2.38,3.01-3.42c2.35-2.2,4.37-4.68,6.23-7.29
		c0.42-0.59,0.69-1.3,1.07-1.92c0.63-1.03,1.31-2.02,1.93-3.06c0.45-0.76,0.95-1.52,0.66-2.46c-0.25-0.26-0.51-0.18-0.76-0.11
		c-0.76,0.19-1.52,0.38-2.27,0.6c-0.72,0.21-1.42,0.22-2.15,0.01c-0.9-0.26-1.36-0.7-1.44-1.59c-0.06-0.68,0.37-1.52,1.1-1.74
		c1.79-0.53,3.49-1.45,5.45-1.36c0.72,0.03,1.48,0.02,2.21-0.45c0.69-0.49,1.13-1.06,1.49-1.71c2.09-3.81,4.44-7.46,6.77-11.14
		c1.2-1.9,2.16-3.95,3.23-5.93c0.77-1.43,1.54-2.84,2.52-4.16c1.06-1.42,1.98-2.95,3.13-4.32c0.13-0.16,0.2-0.37,0.32-0.66
		c0.81-1.08,1.6-2.05,2.39-3.02c0.16-0.2,0.33-0.41,0.52-0.57c1.42-1.19,2.52-2.68,3.7-4.08c1.19-1.41,2.38-2.79,3.7-4.08
		c0.26-0.25,0.59-0.44,0.84-0.7c0.51-0.52,1.11-0.99,1.48-1.61c0.98-1.66,2.36-2.78,4.28-3.41c0.47-0.05,0.84-0.04,1.2-0.07
		c0.63-0.05,1.1,0.25,1.54,0.64c0.28,0.26,0.42,0.58,0.45,0.96c0.05,0.8-0.17,1.55-0.39,2.3c-0.56,1.84-1.18,3.67-1.62,5.54
		c-0.44,1.88-1,3.71-1.78,5.68c-0.47,1.25-0.82,2.35-1.21,3.43c-0.38,1.08-0.71,2.18-1.24,3.22c-0.45,0.88-0.72,1.85-1.05,2.78
		c-0.1,0.29-0.18,0.6-0.22,0.91c-0.19,1.46-0.54,2.89-1.14,4.22c-0.79,1.73-0.97,3.64-1.68,5.38c-0.25,2.19-0.9,4.3-1.31,6.45
		c-0.25,1.34-0.57,2.66-0.62,4.02c-0.02,0.46-0.15,0.93-0.25,1.39c-0.26,1.18-0.56,2.35-0.38,3.58c0.04,0.3-0.06,0.62-0.1,0.93
		c-0.08,0.62-0.22,1.24-0.23,1.86c-0.04,1.68-0.02,3.37-0.02,5.05c0,0.21,0.01,0.42,0.04,0.63c0.07,0.44,0.4,0.74,0.85,0.8
		c0.49,0.06,0.93-0.03,1.35-0.31c1.05-0.69,2.13-1.35,3.02-2.26c0.44-0.45,0.91-0.88,1.39-1.29c1-0.86,1.86-1.83,2.42-3.04
		c0.37-0.81,0.77-1.6,1.15-2.4c1.75-3.04,3.51-6.06,5.24-9.11c1.23-2.18,2.94-3.94,4.79-5.58c0.27-0.24,0.57-0.46,0.85-0.7
		c1.51-1.31,3.24-1.19,4.54,0.33c0.31,0.36,0.58,0.73,0.64,1.23c0.03,0.26,0.15,0.5,0.27,0.86c0.15,0.66,0.24,1.21,0.36,1.76
		c0.35,1.59,0.35,3.17-0.02,4.99c-0.28,1.3-0.56,2.36-0.82,3.42c-0.44,1.77-0.92,3.53-1.3,5.31c-0.14,0.65-0.09,1.35-0.06,2.02
		c0.02,0.41,0.6,0.69,0.97,0.5c0.28-0.14,0.58-0.29,0.78-0.51c0.52-0.58,1-1.2,1.49-1.8c0.41-0.47,0.85-0.92,1.23-1.41
		c0.54-0.71,1.01-1.47,1.57-2.16c1.49-1.84,2.54-3.97,3.89-5.91c0.63-0.91,1.03-1.93,1.48-2.94c0.77-1.72,1.71-3.36,2.48-5.08
		c0.84-1.87,3.06-1.42,3.86-0.26c0.33,0.47,0.56,1.01,0.8,1.53c0.17,0.38,0.28,0.79,0.5,1.23c0.1,0.54,0.24,0.95,0.65,1.28
		c0.92,0.73,1.91,1.21,3.11,1.3c2.17,0.16,4.27-0.16,6.34-0.75c0.83-0.24,1.46-0.81,2.02-1.44c1.57-1.78,3.59-3.02,5.51-4.53
		c0.5-0.11,0.91-0.23,1.32-0.2c0.59,0.04,1.09-0.1,1.63-0.37c0.98-0.49,2.05-0.42,3.04-0.04c2.15,0.82,3.11,2.54,3.34,4.72
		c0.19,1.79,0.04,3.56-0.66,5.23c-0.5,1.2-0.7,2.51-1.44,3.62c-0.07,0.11-0.01,0.31-0.01,0.5c0.67,0.47,1.44,0.59,2.22,0.46
		c0.98-0.16,1.95-0.37,2.9-0.65c0.96-0.28,1.84-0.76,2.46-1.6c0.12-0.17,0.29-0.33,0.34-0.52c0.33-1.34,1.37-2.31,1.87-3.67
		c0.45-0.56,0.88-1.02,1.29-1.49c0.24-0.27,0.51-0.55,0.66-0.87c0.45-0.99,1.22-1.67,2.06-2.3c0.92-0.69,1.85-1.37,2.73-2.1
		c1.14-0.94,2.47-1.56,3.77-2.21c0.18-0.09,0.39-0.2,0.59-0.2c1.27-0.03,2.41-0.64,3.64-0.83c0.56-0.09,1.13-0.13,1.84-0.22
		c1.61,0.06,2.64,0.93,3.55,1.98c0.42,0.48,0.61,1.08,0.66,1.73c0.13,1.55-0.54,2.85-1.2,4.16c-0.61,1.21-1.55,2.07-2.84,2.57
		c-0.55,0.21-1.08,0.38-1.67,0.35c-0.63-0.03-1.26-0.06-2.11-0.15c-0.35-0.15-0.49-0.23-0.61-0.33c-1-0.89-1.01-1.81-0.02-2.65
		c0.4-0.33,0.86-0.59,1.29-0.9c0.64-0.46,1.25-0.96,1.64-1.67c0.25-0.45-0.03-0.99-0.55-1.05c-0.64-0.07-1.24,0.08-1.82,0.37
		c-1.28,0.62-2.46,1.39-3.63,2.18c-2.74,1.86-4.58,4.43-5.99,7.36c-0.2,0.42-0.35,0.88-0.45,1.34c-0.3,1.38-0.56,2.77-0.86,4.15
		c-0.27,1.23,0,2.4,0.39,3.55c0.23,0.68,0.69,1.13,1.4,1.38c1.14,0.41,2.27,0.38,3.41,0.12c3.51-0.8,6.5-2.57,9.14-4.97
		c0.12-0.11,0.29-0.22,0.31-0.34c0.06-0.51,0.62-0.5,0.82-0.85c2.27-1.82,4.61-3.57,6.71-5.6c0.15-0.14,0.32-0.3,0.51-0.35
		c0.78-0.2,1.18-0.8,1.57-1.42c0.31-0.48,0.66-0.94,0.93-1.44c1.26-2.32,3.07-4.21,4.93-6.04c0.6-0.59,1.21-1.16,1.88-1.78
		c0.98-0.65,1.89-1.28,2.82-1.86c0.35-0.22,0.76-0.35,1.14-0.51c1.93-0.83,3.8-0.6,5.57,0.44c0.49,0.29,0.9,0.7,1.34,1.08
		c0.31,0.27,0.58,0.58,0.9,0.9c0.66-0.29,0.98-0.86,1.42-1.29c0.33-0.33,0.65-0.69,0.9-1.08c0.61-0.93,1.43-1.14,2.6-0.71
		c0.55,1.21,0.72,2.29,0.24,3.4c-0.11,0.26-0.07,0.59-0.2,0.97c-0.54,0.42-0.52,1-0.77,1.46c-0.87,1.61-1.77,3.21-2.51,4.87
		c-0.75,1.67-1.86,3.13-2.47,4.88c-0.41,1.18-1.04,2.28-1.49,3.45c-0.39,1.02-0.82,2.03-0.98,3.12c-0.08,0.53,0.46,1.03,0.98,0.92
		c0.2-0.04,0.41-0.11,0.58-0.22c1.09-0.71,2.23-1.37,3.25-2.18c1.11-0.87,2.11-1.88,3.14-2.84c0.18-0.17,0.29-0.42,0.53-0.68
		c0.77-0.85,1.45-1.65,2.14-2.44c1.15-1.31,2.05-2.77,2.78-4.35c1.16-2.52,2.39-5.01,3.6-7.5c0.64-1.31,1.33-2.6,1.97-3.91
		c0.76-1.55,1.48-3.11,2.22-4.67c0.34-0.71,0.71-1.41,0.98-2.14c0.21-0.55-0.01-1.13-0.77-1.24c-1.86-0.28-3.65,0.22-5.46,0.44
		c-1.03,0.12-2.07,0.29-3.02,0.76c-0.09,0.04-0.21,0.03-0.31,0.06c-0.66,0.17-1.31,0.33-1.92,0.65c-0.88,0.47-1.8,0.47-2.71,0.03
		c-0.68-0.55-0.73-1.2-0.27-1.9c0.17-0.25,0.39-0.47,0.66-0.78c1.32-0.49,2.58-0.77,3.91-0.81c0.51-0.01,1.02-0.23,1.53-0.3
		c1.76-0.24,3.51-0.51,5.29-0.64c1.34-0.11,2.71-0.22,4.02-0.61c0.4-0.12,0.79-0.26,1.16-0.44c0.17-0.08,0.34-0.27,0.42-0.44
		c0.34-0.7,0.64-1.42,1.01-2.31c0.05-0.18,0.03-0.33,0.03-0.33s0,0.03,0.01,0.04c0.64-0.65,0.88-1.52,1.23-2.33
		c0.52-1.21,1.17-2.35,1.94-3.41c0.49-0.68,1.03-1.32,1.84-1.68c0.91-0.4,1.61-0.29,2.31,0.35c0.59,0.55,0.83,1.21,0.56,1.99
		c-0.41,1.19-0.8,2.39-1.3,3.54c-0.64,1.49-1.19,3.03-2.13,4.37c-0.08,0.11-0.05,0.3-0.06,0.44c0.11,0.07,0.19,0.17,0.28,0.18
		c1.04,0.12,2.07,0.24,3.11,0.33c0.26,0.02,0.53,0.02,0.78-0.04c2.47-0.57,5-0.45,7.64-0.7c0.55,0.02,0.98,0.05,1.38,0.14
		c0.69,0.16,0.94,0.87,0.53,1.48c-0.37,0.56-0.9,0.9-1.56,0.97c-1.2,0.13-2.4,0.21-3.6,0.3c-0.58,0.04-1.15,0.07-1.73,0.12
		c-0.57,0.05-1.15,0.17-1.72,0.15c-1.99-0.09-3.98,0.11-5.97,0.04c-0.2-0.01-0.4,0.09-0.65,0.25c-0.04,0.11-0.08,0.11-0.17,0.14
		c-0.21,0.22-0.33,0.42-0.45,0.61c-0.9,1.32-1.58,2.75-2.39,4.3c-0.18,0.22-0.19,0.31-0.11,0.41c-0.05,0.13-0.1,0.27-0.25,0.56
		c-1.06,2.31-2.08,4.43-2.99,6.6c-0.95,2.27-1.78,4.58-2.68,6.86c-0.94,2.39-1.7,4.83-2.08,7.37c-0.1,0.67-0.15,1.37-0.06,2.04
		c0.17,1.26,0.97,1.94,2.29,1.83c0.16-0.01,0.31-0.04,0.46-0.09c0.79-0.27,1.58-0.54,2.29-1.02c1.22-0.84,2.31-1.8,3.22-2.97
		c0.76-0.7,1.53-1.41,2.29-2.11c0.23-0.21,0.46-0.42,0.7-0.61c0.23-0.18,0.5-0.2,0.71,0c0.19,0.18,0.28,0.44,0.13,0.71
		c-0.33,0.58-0.6,1.22-1.02,1.73c-0.83,0.99-1.75,1.91-2.63,2.87c-0.18,0.19-0.33,0.4-0.54,0.69c-1.63,1.62-3.48,2.82-5.21,4.18
		c-1.2,0.94-2.52,1.49-4.07,1.36c-1.06-0.09-2.04-0.42-2.91-1.07c-1.16-0.86-1.48-2.12-1.61-3.45c-0.05-0.57,0.04-1.15,0.09-1.72
		c0.07-0.94,0.17-1.88,0.24-2.82c0.01-0.13-0.09-0.27-0.15-0.44c-0.17,0.09-0.34,0.13-0.43,0.23c-1.14,1.3-2.27,2.6-3.44,4.01
		c-0.62,0.77-1.18,1.45-1.78,2.11c-0.78,0.86-1.7,1.55-2.67,2.18c-0.79,0.51-1.54,1.09-2.3,1.64c-0.93,0.67-1.98,0.94-3.11,0.88
		c-1.11-0.06-2-0.76-2.28-1.83c-0.16-0.61-0.21-1.24-0.36-1.85c-0.14-0.61-0.31-1.21-0.51-1.8c-0.08-0.25-0.44-0.33-0.67-0.2
		c-0.14,0.08-0.28,0.15-0.39,0.25c-0.84,0.78-1.68,1.57-2.56,2.45c-1.53,1.05-3.01,2.05-4.53,2.97c-1.49,0.9-3.13,1.2-4.84,0.8
		c-1.4-0.33-2.22-1.27-2.6-2.66c-0.39-1.42-0.24-2.79,0.2-4.16c0.25-0.79,0.49-1.59,0.69-2.4c0.06-0.22-0.01-0.48-0.03-0.9
		c-2.14,1.75-3.9,3.65-5.87,5.44c-0.31,0.14-0.58,0.19-0.78,0.33c-1.46,1.03-2.84,2.18-4.36,3.1c-1.39,0.83-2.92,1.41-4.4,2.09
		c-0.33,0.15-0.69,0.26-1.03,0.39c-2.08,0.78-4.19,0.82-6.42,0.09c-0.53-0.36-0.91-0.73-1.37-0.97c-0.65-0.35-1.03-0.86-1.26-1.53
		c-0.14-0.39-0.31-0.78-0.47-1.16c-0.12-0.29-0.31-0.57-0.36-0.87c-0.29-1.53-0.55-3.07-0.84-4.74c-0.11-0.02-0.41-0.16-0.57-0.07
		c-1.26,0.73-2.63,0.6-3.99,0.56c-0.21-0.01-0.42-0.02-0.63-0.04c-0.46-0.04-0.82,0.16-1.09,0.51c-0.22,0.29-0.48,0.58-0.59,0.92
		c-0.32,0.92-0.97,1.61-1.54,2.36c-0.7,0.92-1.52,1.73-2.25,2.63c-0.64,0.79-1.51,1.28-2.38,1.94c-1.03,0.72-1.94,1.44-2.95,1.99
		c-2.71,1.48-5.52,2.03-8.39,0.45c-2.09-1.15-3.2-2.91-3.32-5.34c-0.11-2.2,0.49-4.25,1.12-6.31c0.3-0.96,0.71-1.85,1.23-2.71
		c0.72-1.21,1.37-2.46,2.08-3.81c0.5-0.18,0.76-0.45,0.83-1c-0.53,0.13-1.01,0.29-1.5,0.35c-0.47,0.05-0.95-0.04-1.42-0.01
		c-0.52,0.03-1.04,0.18-1.56,0.16c-0.88-0.02-1.76-0.18-2.64-0.04c-1.03-0.38-2.04-0.8-2.89-1.54c-0.34-0.3-0.75-0.53-1.15-0.8
		c-0.79,0.66-1.43,1.32-1.83,2.21c-0.34,0.76-0.84,1.44-1.33,2.12c-0.93,1.33-1.79,2.72-2.56,4.15c-0.88,1.64-2.06,3.05-3.28,4.4
		c-1.27,1.4-2.4,2.9-3.54,4.4c-0.32,0.42-0.64,0.83-1.17,1.17c-1.1,0.8-1.97,1.68-2.74,2.71c-0.66,0.88-1.5,1.62-2.29,2.39
		c-0.46,0.45-1.06,0.69-1.68,0.83c-1.5,0.36-2.88-0.62-3.04-2.18c-0.12-1.15-0.1-2.31,0.12-3.46c0.36-1.91,0.9-3.77,1.61-5.59
		c1.27-3.22,2.45-6.48,3.48-9.79c0.14-0.45,0.25-0.91,0.36-1.37c0.15-0.59,0.04-1.16-0.26-1.67c-0.05-0.09-0.31-0.05-0.55-0.07
		c0.18-0.15,0.32-0.27,0.45-0.4c-0.44-0.78-1.09-1.04-1.74-0.58c-0.81,0.58-1.53,1.28-2.04,2.16c-1.25,2.19-2.5,4.37-3.76,6.56
		c-0.24,0.41-0.48,0.82-0.78,1.18c-0.89,1.06-1.56,2.24-2.18,3.46c-0.43,0.84-0.95,1.63-1.47,2.53c-0.12,0.16-0.22,0.21-0.27,0.3
		c-1.3,2.18-3.11,3.94-4.8,5.8c-1.35,1.49-3.05,2.56-4.78,3.55c-2.07,1.18-4.41,0.52-5.98-0.85c-0.51-0.45-0.97-0.96-1.31-1.69
		c-0.63-1.41-0.76-2.81-0.71-4.24c0.03-0.89,0.05-1.79,0.07-2.68c0.01-0.21-0.05-0.44,0.01-0.63c0.32-0.97,0.24-1.98,0.24-2.97
		c0-0.74,0.05-1.45,0.26-2.17c0.18-0.59,0.27-1.24,0.25-1.86c-0.03-0.84-0.45-1.2-1.31-1.24c-1.47-0.06-2.93-0.09-4.39,0.21
		c-0.71,0.15-1.46,0.09-2.2,0.1c-0.58,0.01-1.14,0.09-1.7,0.29c-0.49,0.18-0.98,0.29-1.53,0.29c-0.83-0.01-1.49,0.36-1.94,1.12
		c-0.81,1.35-1.67,2.67-2.48,4.01c-0.79,1.3-1.56,2.61-2.32,3.92C32.47,69.16,32.45,69.39,32.37,69.7z M118.63,60.12
		c-1.03-0.76-1.57-1.96-2.51-2.8c-0.21-0.18-0.31-0.55-0.35-0.85c-0.06-0.42-0.08-0.83-0.45-1.19c-0.72,0.36-1.15,1.03-1.66,1.62
		c-1.04,1.2-1.71,2.64-2.55,3.97c-1.46,2.31-1.83,4.77-1.32,7.4c0.04,0.2,0.08,0.44,0.2,0.59c0.68,0.84,1.42,1.56,2.65,1.39
		c0.58-0.08,1.15-0.15,1.66-0.44c2.02-1.11,3.72-2.55,4.9-4.79c0.62-1.12,1.43-2.15,1.71-3.49
		C120.15,61.11,119.44,60.7,118.63,60.12z M169.33,50.94c-1.1,1.41-1.95,2.98-2.89,4.49c-0.3,0.49-0.66,0.96-0.86,1.49
		c-0.69,1.86-1.56,3.66-1.91,5.63c-0.05,0.31-0.14,0.62-0.14,0.93c-0.02,0.94,0.36,1.45,1.24,1.79c0.51,0.2,0.95,0.02,1.35-0.2
		c1.39-0.75,2.66-1.66,3.95-2.88c0.28-0.24,0.55-0.5,0.83-0.72c2-1.57,3.74-3.35,5.13-5.5c1.37-2.12,2.48-4.38,3.59-6.63
		c0.14-0.28,0.24-0.58,0.31-0.89c0.05-0.25,0.1-0.54,0-0.76c-0.61-1.4-1.87-2.57-3.93-1.96c-2.74,0.8-4.84,2.44-6.38,4.82
		C169.56,50.65,169.55,50.76,169.33,50.94z M49.75,36.55c-0.92,1.99-1.82,4-2.78,5.98c-0.94,1.93-1.93,3.84-2.91,5.75
		c-0.19,0.37-0.42,0.73-0.68,1.05c-1.57,1.96-2.36,4.31-3.31,6.57c-0.12,0.3,0.14,0.63,0.49,0.62c0.31-0.01,0.63-0.04,0.94-0.08
		c0.52-0.08,1.03-0.18,1.55-0.27c1.46-0.25,2.94-0.07,4.4-0.21c0.93-0.09,1.88,0.11,3.04-0.25c0.77,0.08,1.29-0.32,1.67-0.93
		c0.17-0.27,0.32-0.54,0.43-0.84c0.85-2.31,1.57-4.66,2.28-7.01c0.62-2.05,1.15-4.13,2.02-6.1c0.12-0.28,0.21-0.6,0.22-0.91
		c0.01-0.32,0.15-0.6,0.22-0.89c0.29-1.2,1.08-2.27,0.84-3.6c-0.03-0.17,0.09-0.42,0.21-0.57c0.66-0.86,0.7-1.96,1.2-2.89
		c0.12-0.21,0.07-0.51,0.12-0.77c0.06-0.36,0.11-0.72,0.22-1.07c0.65-1.93,1.13-3.92,2.03-5.76c0.25-0.52,0.48-1.05,0.68-1.59
		c0.2-0.53,0.37-1.08,0.06-1.65c-0.66,0-1.11,0.27-1.51,0.75c-1.2,1.46-2.39,2.93-3.65,4.32c-1.77,1.95-3.29,4.08-4.72,6.28
		c-0.74,1.14-1.52,2.27-2.51,3.23C50.1,35.91,50.01,36.17,49.75,36.55z M121.04,57.87c0.19,0.1,0.36,0.22,0.56,0.28
		c0.47,0.14,0.69,0.06,0.95-0.31c0.12-0.17,0.24-0.35,0.33-0.53c0.61-1.33,1.27-2.61,1.56-4.08c0.15-0.78,0.26-1.54,0.2-2.32
		c-0.06-0.91-0.67-1.37-1.44-1.69c-0.74-0.31-1.45-0.33-2.03,0.28c-0.43,0.45-0.78,0.97-1.16,1.47c-0.06,0.07-0.05,0.2-0.07,0.3
		c0.1,0.22,0.21,0.43,0.37,0.76c-0.88-0.03-1.14,0.62-1.53,1.08c-0.72,0.84-0.68,2.34,0.03,3.18
		C119.37,56.95,120.04,57.44,121.04,57.87z"/>
</g>
</svg>
