<?xml version="1.0" encoding="utf-8"?>
<!-- Generator: Adobe Adobe Illustrator 24.2.0, SVG Export Plug-In . SVG Version: 6.00 Build 0)  -->
<svg version="1.1" xmlns="http://www.w3.org/2000/svg" xmlns:xlink="http://www.w3.org/1999/xlink" x="0px" y="0px" width="16.25px"
	 height="22.25px" viewBox="0 0 16.25 22.25" style="enable-background:new 0 0 16.25 22.25;" xml:space="preserve">
<style type="text/css">
	.st0{display:none;fill:#F5F5F5;}
	.st1{fill:#FFFFFF;}
	.st2{display:none;}
	.st3{display:inline;fill:#46080E;}
	.st4{display:inline;fill:#F6F5F1;}
	.st5{display:none;fill:#E6E6E6;}
	.st6{display:none;fill:#F5F5F1;}
	.st7{display:none;fill:#FFFFFF;}
	.st8{fill:#3D090D;}
	.st9{fill:#F4F4F1;}
	.st10{fill:#F5F5F1;}
	.st11{fill:#3D080D;}
	.st12{clip-path:url(#SVGID_7_);}
	.st13{clip-path:url(#SVGID_8_);}
	.st14{clip-path:url(#SVGID_9_);}
	.st15{clip-path:url(#SVGID_10_);}
	.st16{clip-path:url(#SVGID_11_);}
	.st17{clip-path:url(#SVGID_12_);fill:#5B1316;}
	.st18{clip-path:url(#SVGID_19_);}
	.st19{clip-path:url(#SVGID_20_);}
	.st20{clip-path:url(#SVGID_21_);}
	.st21{clip-path:url(#SVGID_22_);}
	.st22{clip-path:url(#SVGID_23_);}
	.st23{clip-path:url(#SVGID_24_);fill:#F5F5F1;}
	.st24{clip-path:url(#SVGID_31_);}
	.st25{clip-path:url(#SVGID_32_);}
	.st26{clip-path:url(#SVGID_33_);}
	.st27{clip-path:url(#SVGID_34_);}
	.st28{clip-path:url(#SVGID_35_);}
	.st29{clip-path:url(#SVGID_36_);fill:#5B1316;}
	.st30{clip-path:url(#SVGID_43_);}
	.st31{clip-path:url(#SVGID_44_);}
	.st32{clip-path:url(#SVGID_45_);}
	.st33{clip-path:url(#SVGID_46_);}
	.st34{clip-path:url(#SVGID_47_);}
	.st35{clip-path:url(#SVGID_48_);fill:#F4F4F1;}
	.st36{fill:#F6F5F1;}
	.st37{opacity:0.502;fill:#F5F5F1;}
	.st38{opacity:0.5216;fill:#F5F5F1;}
	.st39{fill:#5B0F0A;}
	.st40{fill:#CEBEA5;}
	.st41{fill:#AB9A80;}
	.st42{fill:#F5F4F1;}
	.st43{fill:#5C1116;}
	.st44{fill:#CDBEA5;}
	.st45{fill:#5B1316;}
	.st46{opacity:0.5882;}
	.st47{fill:#5B100B;}
	.st48{fill:#CEBFA5;}
	.st49{fill:none;stroke:#B5B4AD;stroke-width:0.4728;stroke-miterlimit:10;}
	.st50{fill:#A18F72;}
	.st51{opacity:0.8588;}
	.st52{opacity:0.4902;}
	.st53{opacity:0.3098;}
	.st54{opacity:0.2902;}
	.st55{opacity:0.4902;fill:#F4F4F1;}
	.st56{display:inline;}
	.st57{opacity:0.4902;fill:#F5F5F1;}
	.st58{fill:none;}
	.st59{font-family:'AgendaOne-Regular';}
	.st60{font-size:11.3386px;}
	.st61{letter-spacing:1;}
	.st62{letter-spacing:2;}
</style>
<g id="Calque_3">
	<rect x="-303.42" y="-854.53" class="st0" width="665" height="1000"/>
</g>
<g id="Calque_2" class="st2">
</g>
<g id="Calque_1">
	<rect x="-576.23" y="-1350.13" class="st5" width="2080" height="2860"/>
	<g>
		<g>
			<path class="st50" d="M15.13,5.88c-0.21-0.82-0.5-1.61-0.92-2.34c-0.7-1.22-1.72-2.09-3.05-2.58c-0.7-0.26-1.43-0.37-2.17-0.45
				C7.81,0.38,6.64,0.49,5.51,0.83C3.99,1.28,2.84,2.23,2.06,3.62C1.64,4.37,1.32,5.16,1.15,6.01C1.02,6.69,0.84,7.37,0.76,8.06
				c-0.1,0.86-0.14,1.74-0.14,2.61C0.6,12.34,0.63,14,0.98,15.65c0.2,0.93,0.45,1.83,0.87,2.68c0.96,1.94,2.53,3.05,4.64,3.36
				c0.77,0.11,1.57,0.12,2.35,0.1c0.91-0.02,1.81-0.2,2.66-0.58c0.92-0.39,1.67-0.97,2.27-1.75c1.02-1.33,1.43-2.88,1.67-4.49
				c0.12-0.76,0.15-1.53,0.19-2.3C15.74,10.38,15.69,8.12,15.13,5.88z M15.38,12.64c-0.03,0.76-0.07,1.51-0.18,2.26
				c-0.24,1.58-0.63,3.11-1.62,4.41c-0.58,0.77-1.3,1.33-2.19,1.72c-0.83,0.38-1.69,0.55-2.57,0.57c-0.76,0.02-1.53,0.02-2.27-0.1
				c-2.04-0.31-3.56-1.4-4.49-3.3c-0.41-0.83-0.65-1.72-0.84-2.63c-0.33-1.62-0.36-3.25-0.35-4.89c0.01-0.85,0.05-1.71,0.14-2.56
				C1.08,7.44,1.26,6.77,1.39,6.1c0.16-0.83,0.48-1.61,0.88-2.35C3.02,2.4,4.13,1.46,5.6,1.01C6.69,0.69,7.82,0.57,8.96,0.7
				c0.72,0.08,1.42,0.19,2.09,0.44c1.29,0.48,2.27,1.33,2.95,2.53c0.41,0.72,0.69,1.49,0.89,2.3C15.44,8.17,15.48,10.4,15.38,12.64z
				"/>
		</g>
		<g>
			<path class="st50" d="M14.72,6.08c-0.2-0.79-0.47-1.55-0.86-2.26c-0.66-1.18-1.62-2.01-2.87-2.48C10.33,1.09,9.64,0.98,8.94,0.9
				C7.83,0.78,6.73,0.89,5.67,1.21C4.24,1.64,3.15,2.56,2.42,3.9c-0.4,0.72-0.7,1.49-0.86,2.3c-0.13,0.66-0.3,1.31-0.37,1.97
				C1.1,9.01,1.06,9.85,1.06,10.69c-0.01,1.61,0.02,3.21,0.34,4.8c0.18,0.89,0.42,1.76,0.82,2.58c0.9,1.86,2.38,2.94,4.37,3.24
				c0.73,0.11,1.48,0.11,2.21,0.09c0.86-0.02,1.7-0.19,2.51-0.56c0.86-0.38,1.57-0.94,2.13-1.69c0.96-1.28,1.34-2.78,1.58-4.32
				c0.11-0.73,0.14-1.48,0.18-2.22C15.29,10.41,15.25,8.23,14.72,6.08z M14.68,12.08c-0.03,0.92-0.11,1.85-0.24,2.76
				c-0.17,1.12-0.45,2.21-1.01,3.21c-0.63,1.12-1.51,1.92-2.72,2.38c-1.21,0.46-2.46,0.48-3.7,0.35c-1.5-0.16-2.78-0.82-3.71-2.1
				c-0.45-0.61-0.77-1.29-1-2.02c-0.09-0.28-0.17-0.57-0.25-0.86c-0.08-0.4-0.17-0.76-0.22-1.13c-0.2-1.35-0.29-2.71-0.24-4.07
				C1.63,9.63,1.7,8.63,1.84,7.65c0.16-1.14,0.46-2.25,1-3.27c0.69-1.3,1.7-2.21,3.1-2.63c0.88-0.26,1.78-0.36,2.69-0.3
				c1.25,0.09,2.44,0.38,3.44,1.2c0.76,0.62,1.31,1.39,1.66,2.31c0.24,0.63,0.42,1.3,0.58,1.96C14.7,8.61,14.74,10.34,14.68,12.08z"
				/>
		</g>
		<g>
			<path class="st50" d="M12.51,15.67c0.05,0.05,0.13,0.05,0.13,0.05v0.17h-1.45v-0.17c0,0,0.05,0,0.07-0.02
				c0.02-0.01,0.05-0.03,0.08-0.07c0.03-0.03,0.07-0.1,0.11-0.19c0.04-0.09,0.06-0.19,0.06-0.28v-4.76H8.68v0.27
				c0,0.2,0.06,0.37,0.2,0.5c0.05,0.05,0.13,0.05,0.13,0.05v0.17H7.55l0-0.17c0,0,0.05,0,0.08-0.02c0.02-0.01,0.05-0.03,0.08-0.07
				c0.03-0.03,0.07-0.1,0.11-0.19c0.04-0.09,0.06-0.19,0.06-0.28V6.45c0-0.2-0.07-0.36-0.2-0.5C7.63,5.9,7.55,5.9,7.55,5.9V5.73
				h1.45V5.9c0,0-0.1,0.02-0.16,0.08c-0.03,0.04-0.07,0.1-0.11,0.19C8.7,6.26,8.68,6.36,8.68,6.45v3.34h2.83v-2.3
				c0-0.2-0.07-0.36-0.2-0.5c-0.05-0.05-0.13-0.05-0.13-0.05V6.77h1.45l0,0.17c0,0-0.1,0.02-0.16,0.08
				c-0.03,0.04-0.07,0.1-0.11,0.19c-0.04,0.09-0.06,0.19-0.06,0.28v7.68C12.31,15.37,12.38,15.54,12.51,15.67z"/>
		</g>
		<path class="st50" d="M10.41,12.56H8.67c0.01,0.13,0.02,0.87-0.37,1.52c-0.98,1.62-2.87,1.15-3.29,0.96
			c-0.34-0.15-0.64-0.32-0.9-0.56c-0.25-0.24-0.45-0.53-0.6-0.88c-0.15-0.35-0.22-0.68-0.22-1.01c0-0.33,0.03-0.6,0.09-0.82
			c0.11-0.39,0.28-0.72,0.51-0.97c0.24-0.25,0.52-0.49,0.82-0.7v0C4.43,9.89,4.24,9.69,4.16,9.53C4.09,9.37,4.05,9.18,4.05,8.97
			c0-0.45,0.14-0.82,0.43-1.1c0.28-0.28,0.64-0.42,1.07-0.42c0.15,0,0.34,0.04,0.57,0.12c0.05,0.02,0.12-0.01,0.18-0.05
			c0.06-0.04,0.12-0.09,0.12-0.09L6.6,7.59c0,0,0,0.02-0.01,0.08C6.58,7.9,6.87,9,6.87,9L6.61,9.1c0,0-0.22-0.47-0.3-0.63
			c-0.14-0.27-0.37-0.4-0.67-0.4S5.11,8.15,4.96,8.3C4.8,8.46,4.72,8.68,4.72,8.95c0,0.15,0.06,0.3,0.16,0.43
			C5.11,9.66,5.42,9.8,5.81,9.8h0.61l0,0.62H5.81c-0.36,0-0.69,0.12-1.01,0.35c-0.56,0.4-0.84,0.94-0.84,1.61
			c0,0.27,0.07,0.54,0.21,0.8c0.14,0.26,0.31,0.48,0.53,0.66c0.22,0.18,0.46,0.33,0.74,0.44c0.28,0.11,0.53,0.17,0.76,0.17
			c0.23,0,0.42-0.02,0.58-0.07c0.16-0.05,0.29-0.11,0.4-0.19C7.29,14.1,7.39,14,7.48,13.9c0.16-0.18,0.26-0.39,0.34-0.61
			c0.07-0.19,0.07-0.6,0.07-0.73H5.97c-0.3,0-0.37,0.08-0.51,0.21l-0.09,0.1l-0.18-0.06l0.38-0.95l4.29,0
			c0.23,0,0.34-0.05,0.51-0.21l0.11-0.14l0.17,0L10.41,12.56z"/>
	</g>
	<rect x="-202.35" y="-405.29" class="st58" width="455" height="409"/>
	<text transform="matrix(1 0 0 1 -202.3535 -397.214)"><tspan x="0" y="0" class="st59 st60">Référence procédure : XXX</tspan><tspan x="0" y="13" class="st59 st60">Mes réf : XXX</tspan><tspan x="0" y="26" class="st59 st60">Numéro BAJ : XXX</tspan><tspan x="0" y="39" class="st59 st60"> </tspan><tspan x="0" y="52" class="st59 st60">Objet : Demande de communication de l’attestation de fin de mission</tspan><tspan x="0" y="65" class="st59 st60"> </tspan><tspan x="0" y="78" class="st59 st60">Madame, Monsieur le Greffier,</tspan><tspan x="0" y="91" class="st59 st60"> </tspan><tspan x="0" y="104" class="st59 st60">Je</tspan><tspan x="9.34" y="104" class="st59 st60"> </tspan><tspan x="12.13" y="104" class="st59 st60">prends</tspan><tspan x="47.09" y="104" class="st59 st60"> </tspan><tspan x="49.88" y="104" class="st59 st60">attache</tspan><tspan x="88.32" y="104" class="st59 st60"> </tspan><tspan x="91.11" y="104" class="st59 st60">avec</tspan><tspan x="114.26" y="104" class="st59 st60"> </tspan><tspan x="117.05" y="104" class="st59 st60">vous</tspan><tspan x="140.8" y="104" class="st59 st60"> </tspan><tspan x="143.59" y="104" class="st59 st60">en</tspan><tspan x="156.03" y="104" class="st59 st60"> </tspan><tspan x="158.82" y="104" class="st59 st60">qualité</tspan><tspan x="194.2" y="104" class="st59 st60"> </tspan><tspan x="196.99" y="104" class="st59 st60">de</tspan><tspan x="209.87" y="104" class="st59 st60"> </tspan><tspan x="212.66" y="104" class="st59 st60">conseil</tspan><tspan x="248.62" y="104" class="st59 st60"> </tspan><tspan x="251.41" y="104" class="st59 st60">de</tspan><tspan x="264.29" y="104" class="st59 st60"> </tspan><tspan x="267.08" y="104" class="st59 st60">Madame,</tspan><tspan x="312.94" y="104" class="st59 st60"> </tspan><tspan x="315.73" y="104" class="st59 st60">Monsieur</tspan><tspan x="363.26" y="104" class="st59 st60"> </tspan><tspan x="366.05" y="104" class="st59 st60">XXX</tspan><tspan x="386.28" y="104" class="st59 st60"> </tspan><tspan x="389.07" y="104" class="st59 st60">dans</tspan><tspan x="412.4" y="104" class="st59 st60"> </tspan><tspan x="415.19" y="104" class="st59 st60">le</tspan><tspan x="424.44" y="104" class="st59 st60"> </tspan><tspan x="427.23" y="104" class="st59 st60">cadre </tspan><tspan x="0" y="117" class="st59 st60">de la procédure XXX,</tspan><tspan x="0" y="130" class="st59 st60"> </tspan><tspan x="0" y="143" class="st59 st60">En</tspan><tspan x="12.14" y="143" class="st59 st60"> </tspan><tspan x="15.83" y="143" class="st59 st60">date</tspan><tspan x="38.81" y="143" class="st59 st60"> </tspan><tspan x="42.49" y="143" class="st59 st60">du</tspan><tspan x="55.54" y="143" class="st59 st60"> </tspan><tspan x="59.23" y="143" class="st59 st60">XXX,</tspan><tspan x="82.27" y="143" class="st59 st60"> </tspan><tspan x="85.95" y="143" class="st59 st60">j’ai</tspan><tspan x="100.28" y="143" class="st59 st60"> </tspan><tspan x="103.96" y="143" class="st59 st60">été</tspan><tspan x="120.86" y="143" class="st59 st60"> </tspan><tspan x="124.54" y="143" class="st59 st60">désigné</tspan><tspan x="163.52" y="143" class="st59 st60"> </tspan><tspan x="167.21" y="143" class="st59 st60">par</tspan><tspan x="183.66" y="143" class="st59 st60"> </tspan><tspan x="187.34" y="143" class="st59 st60">Monsieur</tspan><tspan x="234.87" y="143" class="st59 st60"> </tspan><tspan x="238.56" y="143" class="st59 st60">le</tspan><tspan x="247.81" y="143" class="st59 st60"> </tspan><tspan x="251.49" y="143" class="st59 st60">Bâtonnier</tspan><tspan x="300.89" y="143" class="st59 st60"> </tspan><tspan x="304.58" y="143" class="st59 st60">du</tspan><tspan x="317.63" y="143" class="st59 st60"> </tspan><tspan x="321.31" y="143" class="st59 st60">Barreau</tspan><tspan x="359.67" y="143" class="st59 st60"> </tspan><tspan x="363.35" y="143" class="st59 st60">de</tspan><tspan x="376.23" y="143" class="st59 st60"> </tspan><tspan x="379.92" y="143" class="st59 st60">Versailles</tspan><tspan x="427.8" y="143" class="st59 st60"> </tspan><tspan x="431.48" y="143" class="st59 st60">pour </tspan><tspan x="0" y="156" class="st59 st60">intervenir</tspan><tspan x="49.93" y="156" class="st59 st60"> </tspan><tspan x="52.6" y="156" class="st59 st60">dans</tspan><tspan x="75.92" y="156" class="st59 st60"> </tspan><tspan x="78.59" y="156" class="st59 st60">ses</tspan><tspan x="94.32" y="156" class="st59 st60"> </tspan><tspan x="96.99" y="156" class="st59 st60">intérêts</tspan><tspan x="136.92" y="156" class="st59 st60"> </tspan><tspan x="139.59" y="156" class="st59 st60">à</tspan><tspan x="145.06" y="156" class="st59 st60"> </tspan><tspan x="147.73" y="156" class="st59 st60">la</tspan><tspan x="156.33" y="156" class="st59 st60"> </tspan><tspan x="158.99" y="156" class="st59 st60">suite</tspan><tspan x="183.88" y="156" class="st59 st60"> </tspan><tspan x="186.55" y="156" class="st59 st60">de</tspan><tspan x="199.43" y="156" class="st59 st60"> </tspan><tspan x="202.1" y="156" class="st59 st60">la</tspan><tspan x="210.69" y="156" class="st59 st60"> </tspan><tspan x="213.36" y="156" class="st59 st60">décision</tspan><tspan x="255.98" y="156" class="st59 st60"> </tspan><tspan x="258.65" y="156" class="st59 st60">lui</tspan><tspan x="271.1" y="156" class="st59 st60"> </tspan><tspan x="273.77" y="156" class="st59 st60">ayant</tspan><tspan x="301.57" y="156" class="st59 st60"> </tspan><tspan x="304.23" y="156" class="st59 st60">accordé</tspan><tspan x="345.2" y="156" class="st59 st60"> </tspan><tspan x="347.87" y="156" class="st59 st60">l’aide</tspan><tspan x="375.17" y="156" class="st59 st60"> </tspan><tspan x="377.84" y="156" class="st59 st60">juridictionnelle </tspan><tspan x="0" y="169" class="st59 st60">partielle / totale le XXX (Numéro BAJ : XXX).</tspan><tspan x="0" y="182" class="st59 st60"> </tspan><tspan x="0" y="195" class="st59 st60">Par</tspan><tspan x="15.79" y="195" class="st59 st60 st61"> </tspan><tspan x="19.72" y="195" class="st59 st60">un</tspan><tspan x="32.33" y="195" class="st59 st60 st61"> </tspan><tspan x="36.25" y="195" class="st59 st60">jugement</tspan><tspan x="84.01" y="195" class="st59 st60 st61"> </tspan><tspan x="87.93" y="195" class="st59 st60">/</tspan><tspan x="93.74" y="195" class="st59 st60 st61"> </tspan><tspan x="97.67" y="195" class="st59 st60">un</tspan><tspan x="110.27" y="195" class="st59 st60 st61"> </tspan><tspan x="114.2" y="195" class="st59 st60">arrêt</tspan><tspan x="139.01" y="195" class="st59 st60 st61"> </tspan><tspan x="142.93" y="195" class="st59 st60">/</tspan><tspan x="148.75" y="195" class="st59 st60 st61"> </tspan><tspan x="152.67" y="195" class="st59 st60">une</tspan><tspan x="171.41" y="195" class="st59 st60 st61"> </tspan><tspan x="175.33" y="195" class="st59 st60">ordonnance</tspan><tspan x="236.32" y="195" class="st59 st60 st61"> </tspan><tspan x="240.24" y="195" class="st59 st60">notifié(e)</tspan><tspan x="287.5" y="195" class="st59 st60 st61"> </tspan><tspan x="291.42" y="195" class="st59 st60">le</tspan><tspan x="300.67" y="195" class="st59 st60 st61"> </tspan><tspan x="304.6" y="195" class="st59 st60">XXX,</tspan><tspan x="327.64" y="195" class="st59 st60 st61"> </tspan><tspan x="331.56" y="195" class="st59 st60">la</tspan><tspan x="340.15" y="195" class="st59 st60 st61"> </tspan><tspan x="344.08" y="195" class="st59 st60">juridiction</tspan><tspan x="397.04" y="195" class="st59 st60 st61"> </tspan><tspan x="400.96" y="195" class="st59 st60">de</tspan><tspan x="413.84" y="195" class="st59 st60 st61"> </tspan><tspan x="417.76" y="195" class="st59 st60">céans</tspan><tspan x="446.21" y="195" class="st59 st60 st61"> </tspan><tspan x="450.13" y="195" class="st59 st60">a </tspan><tspan x="0" y="208" class="st59 st60">XXX.</tspan><tspan x="0" y="221" class="st59 st60"> </tspan><tspan x="0" y="234" class="st59 st60">Je</tspan><tspan x="9.34" y="234" class="st59 st60 st62"> </tspan><tspan x="14.78" y="234" class="st59 st60">vous</tspan><tspan x="38.53" y="234" class="st59 st60 st62"> </tspan><tspan x="43.97" y="234" class="st59 st60">serais</tspan><tspan x="72.48" y="234" class="st59 st60 st62"> </tspan><tspan x="77.92" y="234" class="st59 st60">reconnaissant</tspan><tspan x="148.03" y="234" class="st59 st60 st62"> </tspan><tspan x="153.47" y="234" class="st59 st60">de</tspan><tspan x="166.35" y="234" class="st59 st60 st62"> </tspan><tspan x="171.79" y="234" class="st59 st60">bien</tspan><tspan x="194" y="234" class="st59 st60 st62"> </tspan><tspan x="199.43" y="234" class="st59 st60">vouloir</tspan><tspan x="235.67" y="234" class="st59 st60 st62"> </tspan><tspan x="241.11" y="234" class="st59 st60">me</tspan><tspan x="256.63" y="234" class="st59 st60 st62"> </tspan><tspan x="262.06" y="234" class="st59 st60">communiquer</tspan><tspan x="332.48" y="234" class="st59 st60 st62"> </tspan><tspan x="337.91" y="234" class="st59 st60">l’attestation</tspan><tspan x="400.4" y="234" class="st59 st60 st62"> </tspan><tspan x="405.83" y="234" class="st59 st60">de</tspan><tspan x="418.71" y="234" class="st59 st60 st62"> </tspan><tspan x="424.15" y="234" class="st59 st60">fin</tspan><tspan x="437.29" y="234" class="st59 st60 st62"> </tspan><tspan x="442.73" y="234" class="st59 st60">de </tspan><tspan x="0" y="247" class="st59 st60">mission</tspan><tspan x="38.19" y="247" class="st59 st60"> </tspan><tspan x="41.05" y="247" class="st59 st60">par</tspan><tspan x="57.51" y="247" class="st59 st60"> </tspan><tspan x="60.37" y="247" class="st59 st60">courriel</tspan><tspan x="100.11" y="247" class="st59 st60"> </tspan><tspan x="102.98" y="247" class="st59 st60">ou</tspan><tspan x="116.13" y="247" class="st59 st60"> </tspan><tspan x="119" y="247" class="st59 st60">sur</tspan><tspan x="134.39" y="247" class="st59 st60"> </tspan><tspan x="137.25" y="247" class="st59 st60">Télérecours</tspan><tspan x="197.52" y="247" class="st59 st60"> </tspan><tspan x="200.38" y="247" class="st59 st60">afin</tspan><tspan x="219" y="247" class="st59 st60"> </tspan><tspan x="221.87" y="247" class="st59 st60">que</tspan><tspan x="241" y="247" class="st59 st60"> </tspan><tspan x="243.86" y="247" class="st59 st60">je</tspan><tspan x="253.02" y="247" class="st59 st60"> </tspan><tspan x="255.89" y="247" class="st59 st60">puisse</tspan><tspan x="287.64" y="247" class="st59 st60"> </tspan><tspan x="290.51" y="247" class="st59 st60">constituer</tspan><tspan x="343.19" y="247" class="st59 st60"> </tspan><tspan x="346.06" y="247" class="st59 st60">mon</tspan><tspan x="368.6" y="247" class="st59 st60"> </tspan><tspan x="371.47" y="247" class="st59 st60">dossier</tspan><tspan x="408.1" y="247" class="st59 st60"> </tspan><tspan x="410.97" y="247" class="st59 st60">de</tspan><tspan x="423.85" y="247" class="st59 st60"> f</tspan><tspan x="426.72" y="247" class="st59 st60">in</tspan><tspan x="439.86" y="247" class="st59 st60"> </tspan><tspan x="442.73" y="247" class="st59 st60">de </tspan><tspan x="0" y="260" class="st59 st60">mission.</tspan><tspan x="0" y="273" class="st59 st60"> </tspan><tspan x="0" y="286" class="st59 st60">Je</tspan><tspan x="9.34" y="286" class="st59 st60"> </tspan><tspan x="12.8" y="286" class="st59 st60">vous</tspan><tspan x="36.56" y="286" class="st59 st60"> </tspan><tspan x="40.02" y="286" class="st59 st60">prie</tspan><tspan x="60.15" y="286" class="st59 st60"> </tspan><tspan x="63.61" y="286" class="st59 st60">de</tspan><tspan x="76.49" y="286" class="st59 st60"> </tspan><tspan x="79.95" y="286" class="st59 st60">croire,</tspan><tspan x="113.07" y="286" class="st59 st60"> </tspan><tspan x="116.53" y="286" class="st59 st60">Madame,</tspan><tspan x="162.39" y="286" class="st59 st60"> </tspan><tspan x="165.85" y="286" class="st59 st60">Monsieur</tspan><tspan x="213.38" y="286" class="st59 st60"> </tspan><tspan x="216.84" y="286" class="st59 st60">le</tspan><tspan x="226.09" y="286" class="st59 st60"> </tspan><tspan x="229.55" y="286" class="st59 st60">Greffier,</tspan><tspan x="272.74" y="286" class="st59 st60"> </tspan><tspan x="276.2" y="286" class="st59 st60">en</tspan><tspan x="288.63" y="286" class="st59 st60"> </tspan><tspan x="292.09" y="286" class="st59 st60">l’assurance</tspan><tspan x="347.32" y="286" class="st59 st60"> </tspan><tspan x="350.78" y="286" class="st59 st60">de</tspan><tspan x="363.66" y="286" class="st59 st60"> </tspan><tspan x="367.12" y="286" class="st59 st60">ma</tspan><tspan x="381.99" y="286" class="st59 st60"> </tspan><tspan x="385.45" y="286" class="st59 st60">considération </tspan><tspan x="0" y="299" class="st59 st60">distinguée.</tspan><tspan x="0" y="312" class="st59 st60"> </tspan></text>
</g>
</svg>
