<?xml version="1.0" encoding="utf-8"?>
<!-- Generator: Adobe Adobe Illustrator 24.2.0, SVG Export Plug-In . SVG Version: 6.00 Build 0)  -->
<svg version="1.1" xmlns="http://www.w3.org/2000/svg" xmlns:xlink="http://www.w3.org/1999/xlink" x="0px" y="0px" width="80.5px"
	 height="96px" viewBox="0 0 80.5 96" style="enable-background:new 0 0 80.5 96;" xml:space="preserve">
<style type="text/css">
	.st0{display:none;fill:#F5F5F5;}
	.st1{fill:#FFFFFF;}
	.st2{display:none;}
	.st3{display:inline;fill:#46080E;}
	.st4{display:inline;fill:#F6F5F1;}
	.st5{display:none;fill:#E6E6E6;}
	.st6{display:none;fill:#F5F5F1;}
	.st7{display:none;fill:#FFFFFF;}
	.st8{fill:#3D090D;}
	.st9{fill:#F4F4F1;}
	.st10{fill:#F5F5F1;}
	.st11{fill:#3D080D;}
	.st12{clip-path:url(#SVGID_7_);}
	.st13{clip-path:url(#SVGID_8_);}
	.st14{clip-path:url(#SVGID_9_);}
	.st15{clip-path:url(#SVGID_10_);}
	.st16{clip-path:url(#SVGID_11_);}
	.st17{clip-path:url(#SVGID_12_);fill:#5B1316;}
	.st18{clip-path:url(#SVGID_19_);}
	.st19{clip-path:url(#SVGID_20_);}
	.st20{clip-path:url(#SVGID_21_);}
	.st21{clip-path:url(#SVGID_22_);}
	.st22{clip-path:url(#SVGID_23_);}
	.st23{clip-path:url(#SVGID_24_);fill:#F5F5F1;}
	.st24{clip-path:url(#SVGID_31_);}
	.st25{clip-path:url(#SVGID_32_);}
	.st26{clip-path:url(#SVGID_33_);}
	.st27{clip-path:url(#SVGID_34_);}
	.st28{clip-path:url(#SVGID_35_);}
	.st29{clip-path:url(#SVGID_36_);fill:#5B1316;}
	.st30{clip-path:url(#SVGID_43_);}
	.st31{clip-path:url(#SVGID_44_);}
	.st32{clip-path:url(#SVGID_45_);}
	.st33{clip-path:url(#SVGID_46_);}
	.st34{clip-path:url(#SVGID_47_);}
	.st35{clip-path:url(#SVGID_48_);fill:#F4F4F1;}
	.st36{fill:#F6F5F1;}
	.st37{opacity:0.502;fill:#F5F5F1;}
	.st38{opacity:0.5216;fill:#F5F5F1;}
	.st39{fill:#5B0F0A;}
	.st40{fill:#CEBEA5;}
	.st41{fill:#AB9A80;}
	.st42{fill:#F5F4F1;}
	.st43{fill:#5C1116;}
	.st44{fill:#CDBEA5;}
	.st45{fill:#5B1316;}
	.st46{opacity:0.5882;}
	.st47{fill:#5B100B;}
	.st48{fill:#CEBFA5;}
	.st49{fill:none;stroke:#B5B4AD;stroke-width:0.4728;stroke-miterlimit:10;}
	.st50{fill:#A18F72;}
	.st51{opacity:0.8588;}
	.st52{opacity:0.4902;}
	.st53{opacity:0.3098;}
	.st54{opacity:0.2902;}
	.st55{opacity:0.4902;fill:#F4F4F1;}
	.st56{display:inline;}
	.st57{opacity:0.4902;fill:#F5F5F1;}
</style>
<g id="Calque_3">
</g>
<g id="Calque_2" class="st2">
</g>
<g id="Calque_1">
	<path class="st41" d="M11.33,85.01c-0.27,0.42-0.53,0.8-0.79,1.19c-0.03,0.04-0.07,0.08-0.08,0.12c-0.2,0.59-0.59,1.08-0.95,1.57
		c-0.22,0.29-0.47,0.56-0.7,0.84c-0.06,0.08-0.12,0.16-0.18,0.24c-0.15,0.2-0.31,0.39-0.46,0.58c-0.09,0.12-0.21,0.21-0.29,0.34
		c-0.38,0.59-0.96,0.84-1.62,0.96c-0.07,0.01-0.13,0.02-0.22,0.06c-0.39,0.08-0.76,0.12-1.12,0.18c-0.24,0.04-0.46-0.03-0.68-0.1
		c-0.27-0.09-0.4-0.28-0.43-0.55c-0.03-0.27,0.08-0.5,0.31-0.63c0.18-0.11,0.39-0.18,0.6-0.23c0.43-0.1,0.83-0.26,1.2-0.49
		c0.11-0.07,0.22-0.16,0.34-0.26c0.18-0.21,0.35-0.4,0.51-0.58c0.32-0.36,0.6-0.75,0.96-1.09c0.74-0.7,1.39-1.48,1.98-2.31
		c0.13-0.19,0.22-0.41,0.34-0.61c0.2-0.33,0.41-0.64,0.61-0.97c0.14-0.24,0.3-0.48,0.21-0.78c-0.08-0.08-0.16-0.06-0.24-0.04
		c-0.24,0.06-0.48,0.12-0.72,0.19c-0.23,0.07-0.45,0.07-0.68,0c-0.29-0.08-0.43-0.22-0.46-0.5c-0.02-0.21,0.12-0.48,0.35-0.55
		c0.57-0.17,1.11-0.46,1.73-0.43c0.23,0.01,0.47,0.01,0.7-0.14c0.22-0.15,0.36-0.34,0.47-0.54c0.66-1.21,1.41-2.37,2.15-3.53
		c0.38-0.6,0.69-1.25,1.02-1.88c0.24-0.45,0.49-0.9,0.8-1.32c0.34-0.45,0.63-0.94,0.99-1.37c0.04-0.05,0.06-0.12,0.1-0.21
		c0.26-0.34,0.51-0.65,0.76-0.96c0.05-0.06,0.1-0.13,0.17-0.18c0.45-0.38,0.8-0.85,1.17-1.29c0.38-0.45,0.76-0.89,1.17-1.29
		c0.08-0.08,0.19-0.14,0.27-0.22c0.16-0.16,0.35-0.32,0.47-0.51c0.31-0.53,0.75-0.88,1.36-1.08c0.15-0.01,0.27-0.01,0.38-0.02
		c0.2-0.02,0.35,0.08,0.49,0.2c0.09,0.08,0.13,0.18,0.14,0.31c0.02,0.25-0.05,0.49-0.12,0.73c-0.18,0.58-0.38,1.17-0.51,1.76
		c-0.14,0.6-0.32,1.18-0.56,1.8c-0.15,0.4-0.26,0.75-0.38,1.09c-0.12,0.34-0.22,0.69-0.39,1.02c-0.14,0.28-0.23,0.59-0.33,0.88
		c-0.03,0.09-0.06,0.19-0.07,0.29c-0.06,0.46-0.17,0.92-0.36,1.34c-0.25,0.55-0.31,1.15-0.53,1.71c-0.08,0.69-0.29,1.36-0.42,2.05
		c-0.08,0.42-0.18,0.84-0.2,1.28c-0.01,0.15-0.05,0.29-0.08,0.44c-0.08,0.37-0.18,0.74-0.12,1.13c0.01,0.09-0.02,0.2-0.03,0.29
		c-0.03,0.2-0.07,0.39-0.07,0.59c-0.01,0.53-0.01,1.07-0.01,1.6c0,0.07,0,0.13,0.01,0.2c0.02,0.14,0.13,0.23,0.27,0.25
		c0.16,0.02,0.3-0.01,0.43-0.1c0.33-0.22,0.68-0.43,0.96-0.72c0.14-0.14,0.29-0.28,0.44-0.41c0.32-0.27,0.59-0.58,0.77-0.97
		c0.12-0.26,0.24-0.51,0.37-0.76c0.55-0.96,1.11-1.92,1.66-2.89c0.39-0.69,0.93-1.25,1.52-1.77c0.09-0.08,0.18-0.14,0.27-0.22
		c0.48-0.42,1.03-0.38,1.44,0.1c0.1,0.11,0.18,0.23,0.2,0.39c0.01,0.08,0.05,0.16,0.09,0.27c0.05,0.21,0.08,0.38,0.11,0.56
		c0.11,0.5,0.11,1.01-0.01,1.58c-0.09,0.41-0.18,0.75-0.26,1.09c-0.14,0.56-0.29,1.12-0.41,1.69c-0.04,0.21-0.03,0.43-0.02,0.64
		c0.01,0.13,0.19,0.22,0.31,0.16c0.09-0.04,0.18-0.09,0.25-0.16c0.17-0.18,0.32-0.38,0.47-0.57c0.13-0.15,0.27-0.29,0.39-0.45
		c0.17-0.22,0.32-0.47,0.5-0.69c0.47-0.59,0.81-1.26,1.23-1.88c0.2-0.29,0.33-0.61,0.47-0.93c0.24-0.55,0.54-1.07,0.79-1.61
		c0.27-0.59,0.97-0.45,1.23-0.08c0.1,0.15,0.18,0.32,0.25,0.49c0.05,0.12,0.09,0.25,0.16,0.39c0.03,0.17,0.07,0.3,0.21,0.41
		c0.29,0.23,0.61,0.38,0.99,0.41c0.69,0.05,1.36-0.05,2.01-0.24c0.26-0.08,0.46-0.26,0.64-0.46c0.5-0.57,1.14-0.96,1.75-1.44
		c0.16-0.03,0.29-0.07,0.42-0.06c0.19,0.01,0.35-0.03,0.52-0.12c0.31-0.16,0.65-0.13,0.97-0.01c0.68,0.26,0.99,0.81,1.06,1.5
		c0.06,0.57,0.01,1.13-0.21,1.66c-0.16,0.38-0.22,0.8-0.46,1.15c-0.02,0.03,0,0.1,0,0.16c0.21,0.15,0.46,0.19,0.7,0.15
		c0.31-0.05,0.62-0.12,0.92-0.21c0.31-0.09,0.58-0.24,0.78-0.51c0.04-0.05,0.09-0.11,0.11-0.17c0.1-0.43,0.43-0.73,0.59-1.16
		c0.14-0.18,0.28-0.32,0.41-0.47c0.08-0.09,0.16-0.17,0.21-0.28c0.14-0.32,0.39-0.53,0.65-0.73c0.29-0.22,0.59-0.43,0.87-0.67
		c0.36-0.3,0.78-0.49,1.2-0.7c0.06-0.03,0.12-0.06,0.19-0.07c0.4-0.01,0.76-0.2,1.16-0.26c0.18-0.03,0.36-0.04,0.58-0.07
		c0.51,0.02,0.84,0.3,1.13,0.63c0.13,0.15,0.19,0.34,0.21,0.55c0.04,0.49-0.17,0.91-0.38,1.32c-0.2,0.38-0.49,0.66-0.9,0.81
		c-0.17,0.07-0.34,0.12-0.53,0.11c-0.2-0.01-0.4-0.02-0.67-0.05c-0.11-0.05-0.16-0.07-0.19-0.11c-0.32-0.28-0.32-0.58-0.01-0.84
		c0.13-0.11,0.27-0.19,0.41-0.29c0.2-0.15,0.4-0.31,0.52-0.53c0.08-0.14-0.01-0.31-0.18-0.33c-0.2-0.02-0.39,0.03-0.58,0.12
		c-0.4,0.2-0.78,0.44-1.15,0.69c-0.87,0.59-1.45,1.41-1.9,2.33c-0.06,0.13-0.11,0.28-0.14,0.42c-0.1,0.44-0.18,0.88-0.27,1.32
		c-0.09,0.39,0,0.76,0.12,1.13c0.07,0.22,0.22,0.36,0.44,0.44c0.36,0.13,0.72,0.12,1.08,0.04c1.11-0.26,2.06-0.82,2.9-1.58
		c0.04-0.03,0.09-0.07,0.1-0.11c0.02-0.16,0.2-0.16,0.26-0.27c0.72-0.58,1.46-1.13,2.13-1.78c0.05-0.05,0.1-0.1,0.16-0.11
		c0.25-0.06,0.37-0.25,0.5-0.45c0.1-0.15,0.21-0.3,0.3-0.46c0.4-0.74,0.97-1.33,1.56-1.92c0.19-0.19,0.38-0.37,0.6-0.57
		c0.31-0.21,0.6-0.41,0.89-0.59c0.11-0.07,0.24-0.11,0.36-0.16c0.61-0.26,1.2-0.19,1.77,0.14c0.16,0.09,0.29,0.22,0.42,0.34
		c0.1,0.09,0.18,0.18,0.29,0.28c0.21-0.09,0.31-0.27,0.45-0.41c0.11-0.11,0.21-0.22,0.29-0.34c0.19-0.3,0.45-0.36,0.82-0.22
		c0.17,0.38,0.23,0.73,0.08,1.08c-0.04,0.08-0.02,0.19-0.06,0.31c-0.17,0.13-0.17,0.32-0.24,0.46c-0.27,0.51-0.56,1.02-0.8,1.55
		c-0.24,0.53-0.59,0.99-0.78,1.55c-0.13,0.37-0.33,0.72-0.47,1.09c-0.12,0.32-0.26,0.64-0.31,0.99c-0.02,0.17,0.15,0.33,0.31,0.29
		c0.06-0.01,0.13-0.03,0.18-0.07c0.35-0.23,0.71-0.44,1.03-0.69c0.35-0.28,0.67-0.6,1-0.9c0.06-0.05,0.09-0.13,0.17-0.22
		c0.25-0.27,0.46-0.52,0.68-0.77c0.36-0.42,0.65-0.88,0.88-1.38c0.37-0.8,0.76-1.59,1.14-2.38c0.2-0.42,0.42-0.82,0.63-1.24
		c0.24-0.49,0.47-0.99,0.7-1.48c0.11-0.23,0.22-0.45,0.31-0.68c0.07-0.17,0-0.36-0.24-0.39c-0.59-0.09-1.16,0.07-1.73,0.14
		c-0.33,0.04-0.66,0.09-0.96,0.24c-0.03,0.01-0.07,0.01-0.1,0.02c-0.21,0.05-0.41,0.1-0.61,0.21c-0.28,0.15-0.57,0.15-0.86,0.01
		c-0.22-0.17-0.23-0.38-0.09-0.6c0.05-0.08,0.12-0.15,0.21-0.25c0.42-0.15,0.82-0.24,1.24-0.26c0.16,0,0.32-0.07,0.49-0.09
		c0.56-0.08,1.11-0.16,1.68-0.2c0.43-0.03,0.86-0.07,1.28-0.19c0.13-0.04,0.25-0.08,0.37-0.14c0.05-0.03,0.11-0.08,0.13-0.14
		c0.11-0.22,0.2-0.45,0.32-0.73c0.02-0.06,0.01-0.11,0.01-0.11s0,0.01,0,0.01c0.2-0.21,0.28-0.48,0.39-0.74
		c0.17-0.38,0.37-0.74,0.62-1.08c0.16-0.22,0.33-0.42,0.58-0.53c0.29-0.13,0.51-0.09,0.73,0.11c0.19,0.17,0.26,0.39,0.18,0.63
		c-0.13,0.38-0.25,0.76-0.41,1.12c-0.2,0.47-0.38,0.96-0.68,1.39c-0.02,0.04-0.01,0.09-0.02,0.14c0.03,0.02,0.06,0.05,0.09,0.06
		c0.33,0.04,0.66,0.07,0.99,0.11c0.08,0.01,0.17,0.01,0.25-0.01c0.78-0.18,1.59-0.14,2.42-0.22c0.18,0.01,0.31,0.01,0.44,0.04
		c0.22,0.05,0.3,0.28,0.17,0.47c-0.12,0.18-0.29,0.29-0.49,0.31c-0.38,0.04-0.76,0.07-1.14,0.1c-0.18,0.01-0.37,0.02-0.55,0.04
		c-0.18,0.01-0.36,0.06-0.54,0.05c-0.63-0.03-1.26,0.04-1.9,0.01c-0.06,0-0.13,0.03-0.21,0.08c-0.01,0.03-0.03,0.03-0.06,0.04
		c-0.07,0.07-0.1,0.13-0.14,0.19c-0.28,0.42-0.5,0.87-0.76,1.37c-0.06,0.07-0.06,0.1-0.04,0.13c-0.02,0.04-0.03,0.08-0.08,0.18
		c-0.34,0.73-0.66,1.41-0.95,2.1c-0.3,0.72-0.56,1.45-0.85,2.18c-0.3,0.76-0.54,1.53-0.66,2.34c-0.03,0.21-0.05,0.44-0.02,0.65
		c0.05,0.4,0.31,0.61,0.73,0.58c0.05,0,0.1-0.01,0.15-0.03c0.25-0.09,0.5-0.17,0.73-0.32c0.39-0.27,0.73-0.57,1.02-0.94
		c0.24-0.22,0.48-0.45,0.73-0.67c0.07-0.07,0.15-0.13,0.22-0.19c0.07-0.06,0.16-0.06,0.22,0c0.06,0.06,0.09,0.14,0.04,0.23
		c-0.11,0.19-0.19,0.39-0.32,0.55c-0.26,0.32-0.56,0.61-0.84,0.91c-0.06,0.06-0.11,0.13-0.17,0.22c-0.52,0.51-1.1,0.9-1.65,1.33
		c-0.38,0.3-0.8,0.47-1.29,0.43c-0.34-0.03-0.65-0.13-0.92-0.34c-0.37-0.27-0.47-0.67-0.51-1.09c-0.02-0.18,0.01-0.36,0.03-0.55
		c0.02-0.3,0.05-0.6,0.08-0.89c0-0.04-0.03-0.09-0.05-0.14c-0.05,0.03-0.11,0.04-0.14,0.07c-0.36,0.41-0.72,0.83-1.09,1.27
		c-0.2,0.24-0.38,0.46-0.56,0.67c-0.25,0.27-0.54,0.49-0.85,0.69c-0.25,0.16-0.49,0.35-0.73,0.52c-0.29,0.21-0.63,0.3-0.99,0.28
		c-0.35-0.02-0.63-0.24-0.72-0.58c-0.05-0.19-0.07-0.39-0.11-0.59c-0.04-0.19-0.1-0.38-0.16-0.57c-0.03-0.08-0.14-0.1-0.21-0.06
		c-0.04,0.02-0.09,0.05-0.13,0.08c-0.27,0.25-0.53,0.5-0.81,0.78c-0.49,0.33-0.95,0.65-1.44,0.94c-0.47,0.29-0.99,0.38-1.53,0.25
		c-0.44-0.1-0.71-0.4-0.83-0.84c-0.12-0.45-0.08-0.89,0.06-1.32c0.08-0.25,0.15-0.51,0.22-0.76c0.02-0.07,0-0.15-0.01-0.29
		c-0.68,0.56-1.24,1.16-1.86,1.73c-0.1,0.05-0.18,0.06-0.25,0.11c-0.46,0.33-0.9,0.69-1.38,0.98c-0.44,0.26-0.93,0.45-1.4,0.66
		c-0.11,0.05-0.22,0.08-0.33,0.12c-0.66,0.25-1.33,0.26-2.04,0.03c-0.17-0.11-0.29-0.23-0.43-0.31c-0.21-0.11-0.33-0.27-0.4-0.49
		c-0.04-0.12-0.1-0.25-0.15-0.37c-0.04-0.09-0.1-0.18-0.12-0.28c-0.09-0.49-0.17-0.98-0.27-1.51c-0.03,0-0.13-0.05-0.18-0.02
		c-0.4,0.23-0.83,0.19-1.27,0.18c-0.07,0-0.13-0.01-0.2-0.01c-0.15-0.01-0.26,0.05-0.35,0.16c-0.07,0.09-0.15,0.19-0.19,0.29
		c-0.1,0.29-0.31,0.51-0.49,0.75c-0.22,0.29-0.48,0.55-0.71,0.83c-0.2,0.25-0.48,0.41-0.75,0.62c-0.33,0.23-0.62,0.46-0.94,0.63
		c-0.86,0.47-1.75,0.64-2.66,0.14c-0.66-0.36-1.02-0.92-1.05-1.69c-0.03-0.7,0.16-1.35,0.36-2c0.09-0.3,0.23-0.59,0.39-0.86
		c0.23-0.38,0.43-0.78,0.66-1.21c0.16-0.06,0.24-0.14,0.26-0.32c-0.17,0.04-0.32,0.09-0.48,0.11c-0.15,0.02-0.3-0.01-0.45,0
		c-0.17,0.01-0.33,0.06-0.49,0.05c-0.28-0.01-0.56-0.06-0.84-0.01c-0.33-0.12-0.65-0.25-0.92-0.49c-0.11-0.1-0.24-0.17-0.36-0.25
		c-0.25,0.21-0.45,0.42-0.58,0.7c-0.11,0.24-0.27,0.46-0.42,0.67c-0.3,0.42-0.57,0.86-0.81,1.32c-0.28,0.52-0.65,0.97-1.04,1.4
		c-0.4,0.44-0.76,0.92-1.12,1.4c-0.1,0.13-0.2,0.26-0.37,0.37c-0.35,0.25-0.63,0.53-0.87,0.86c-0.21,0.28-0.48,0.51-0.73,0.76
		c-0.15,0.14-0.34,0.22-0.53,0.26c-0.48,0.11-0.91-0.2-0.96-0.69c-0.04-0.37-0.03-0.73,0.04-1.1c0.12-0.61,0.29-1.2,0.51-1.77
		c0.4-1.02,0.78-2.06,1.1-3.11c0.04-0.14,0.08-0.29,0.11-0.44c0.05-0.19,0.01-0.37-0.08-0.53c-0.02-0.03-0.1-0.01-0.17-0.02
		c0.06-0.05,0.1-0.09,0.14-0.13c-0.14-0.25-0.35-0.33-0.55-0.18c-0.26,0.18-0.49,0.4-0.65,0.69c-0.4,0.69-0.79,1.39-1.19,2.08
		c-0.07,0.13-0.15,0.26-0.25,0.38c-0.28,0.34-0.49,0.71-0.69,1.1c-0.14,0.27-0.3,0.52-0.47,0.8c-0.04,0.05-0.07,0.07-0.09,0.09
		c-0.41,0.69-0.99,1.25-1.52,1.84c-0.43,0.47-0.97,0.81-1.52,1.13c-0.66,0.37-1.4,0.16-1.9-0.27c-0.16-0.14-0.31-0.31-0.42-0.54
		c-0.2-0.45-0.24-0.89-0.23-1.35c0.01-0.28,0.02-0.57,0.02-0.85c0-0.07-0.02-0.14,0-0.2c0.1-0.31,0.07-0.63,0.08-0.94
		c0-0.23,0.02-0.46,0.08-0.69c0.06-0.19,0.08-0.39,0.08-0.59c-0.01-0.27-0.14-0.38-0.42-0.39c-0.47-0.02-0.93-0.03-1.39,0.07
		c-0.23,0.05-0.46,0.03-0.7,0.03c-0.18,0-0.36,0.03-0.54,0.09c-0.15,0.06-0.31,0.09-0.49,0.09c-0.26,0-0.47,0.12-0.62,0.36
		c-0.26,0.43-0.53,0.85-0.79,1.27c-0.25,0.41-0.49,0.83-0.74,1.24C11.36,84.84,11.36,84.91,11.33,85.01z M38.7,81.97
		c-0.33-0.24-0.5-0.62-0.8-0.89c-0.07-0.06-0.1-0.17-0.11-0.27c-0.02-0.13-0.02-0.26-0.14-0.38c-0.23,0.12-0.37,0.33-0.53,0.51
		c-0.33,0.38-0.54,0.84-0.81,1.26c-0.46,0.73-0.58,1.51-0.42,2.35c0.01,0.06,0.02,0.14,0.06,0.19c0.21,0.27,0.45,0.49,0.84,0.44
		c0.18-0.03,0.36-0.05,0.53-0.14c0.64-0.35,1.18-0.81,1.56-1.52c0.2-0.35,0.45-0.68,0.54-1.11C39.19,82.28,38.96,82.15,38.7,81.97z
		 M54.79,79.06c-0.35,0.45-0.62,0.94-0.92,1.43c-0.1,0.16-0.21,0.31-0.27,0.47c-0.22,0.59-0.5,1.16-0.61,1.79
		c-0.02,0.1-0.04,0.2-0.05,0.29c-0.01,0.3,0.11,0.46,0.39,0.57c0.16,0.06,0.3,0.01,0.43-0.06c0.44-0.24,0.84-0.53,1.25-0.91
		c0.09-0.08,0.17-0.16,0.26-0.23c0.63-0.5,1.19-1.06,1.63-1.74c0.44-0.67,0.79-1.39,1.14-2.11c0.04-0.09,0.08-0.19,0.1-0.28
		c0.02-0.08,0.03-0.17,0-0.24c-0.19-0.44-0.59-0.81-1.25-0.62c-0.87,0.25-1.54,0.77-2.03,1.53C54.86,78.96,54.86,79,54.79,79.06z
		 M16.84,74.49c-0.29,0.63-0.58,1.27-0.88,1.9c-0.3,0.61-0.61,1.22-0.92,1.83c-0.06,0.12-0.13,0.23-0.22,0.33
		c-0.5,0.62-0.75,1.37-1.05,2.09c-0.04,0.09,0.04,0.2,0.16,0.2c0.1,0,0.2-0.01,0.3-0.03c0.16-0.02,0.33-0.06,0.49-0.08
		c0.46-0.08,0.93-0.02,1.39-0.07c0.3-0.03,0.6,0.04,0.96-0.08c0.24,0.02,0.41-0.1,0.53-0.29c0.05-0.08,0.1-0.17,0.14-0.27
		c0.27-0.73,0.5-1.48,0.72-2.23c0.2-0.65,0.36-1.31,0.64-1.94c0.04-0.09,0.07-0.19,0.07-0.29c0-0.1,0.05-0.19,0.07-0.28
		c0.09-0.38,0.34-0.72,0.27-1.14c-0.01-0.06,0.03-0.13,0.07-0.18c0.21-0.27,0.22-0.62,0.38-0.92c0.04-0.07,0.02-0.16,0.04-0.24
		c0.02-0.11,0.03-0.23,0.07-0.34c0.2-0.61,0.36-1.24,0.65-1.83c0.08-0.16,0.15-0.33,0.22-0.5c0.06-0.17,0.12-0.34,0.02-0.52
		c-0.21,0-0.35,0.09-0.48,0.24c-0.38,0.46-0.76,0.93-1.16,1.37c-0.56,0.62-1.04,1.29-1.5,1.99c-0.24,0.36-0.48,0.72-0.8,1.02
		C16.96,74.29,16.93,74.37,16.84,74.49z M39.47,81.25c0.06,0.03,0.11,0.07,0.18,0.09c0.15,0.04,0.22,0.02,0.3-0.1
		c0.04-0.05,0.08-0.11,0.1-0.17c0.19-0.42,0.4-0.83,0.5-1.29c0.05-0.25,0.08-0.49,0.06-0.74c-0.02-0.29-0.21-0.43-0.46-0.54
		c-0.23-0.1-0.46-0.1-0.64,0.09c-0.14,0.14-0.25,0.31-0.37,0.47c-0.02,0.02-0.02,0.06-0.02,0.09c0.03,0.07,0.07,0.14,0.12,0.24
		c-0.28-0.01-0.36,0.2-0.49,0.34c-0.23,0.27-0.22,0.74,0.01,1.01C38.94,80.96,39.15,81.12,39.47,81.25z"/>
	<g>
		<g>
			<path class="st41" d="M61.93,21.3c-0.64-2.56-1.54-5-2.85-7.27c-2.19-3.79-5.34-6.49-9.47-8c-2.17-0.79-4.43-1.14-6.72-1.39
				c-3.68-0.42-7.3-0.05-10.81,0.99c-4.72,1.39-8.29,4.36-10.7,8.66c-1.3,2.33-2.31,4.79-2.83,7.43c-0.42,2.12-0.98,4.22-1.21,6.36
				c-0.29,2.68-0.42,5.39-0.44,8.09c-0.05,5.18,0.05,10.35,1.13,15.45c0.6,2.87,1.4,5.67,2.7,8.31c2.97,6.01,7.84,9.47,14.41,10.44
				c2.4,0.35,4.87,0.36,7.3,0.3c2.83-0.06,5.6-0.61,8.26-1.8c2.84-1.22,5.17-3.02,7.03-5.44c3.15-4.11,4.43-8.94,5.19-13.93
				c0.36-2.35,0.48-4.76,0.59-7.14C63.82,35.27,63.67,28.23,61.93,21.3z M61.8,40.65c-0.09,2.97-0.36,5.96-0.8,8.91
				c-0.54,3.61-1.5,7.13-3.34,10.34c-2.08,3.62-4.99,6.21-8.96,7.69c-4,1.49-8.1,1.56-12.2,1.13c-4.96-0.51-9.18-2.66-12.23-6.75
				c-1.47-1.97-2.53-4.16-3.28-6.5c-0.3-0.91-0.55-1.84-0.82-2.76c-0.26-1.28-0.55-2.45-0.73-3.64c-0.66-4.35-0.96-8.74-0.77-13.13
				c0.13-3.2,0.36-6.4,0.8-9.57c0.52-3.67,1.51-7.25,3.31-10.55c2.28-4.18,5.6-7.12,10.22-8.49c2.89-0.86,5.85-1.17,8.85-0.96
				c4.11,0.29,8.03,1.21,11.36,3.86c2.5,1.99,4.33,4.49,5.47,7.43c0.79,2.04,1.39,4.17,1.9,6.3C61.86,29.45,61.98,35.05,61.8,40.65z
				"/>
			<path class="st41" d="M58.93,22.85c-0.55-2.32-1.33-4.52-2.45-6.58c-1.88-3.43-4.6-5.87-8.16-7.24
				c-1.87-0.72-3.82-1.03-5.79-1.26c-3.18-0.37-6.29-0.05-9.31,0.89c-4.06,1.26-7.14,3.95-9.22,7.83c-1.12,2.11-1.99,4.33-2.44,6.72
				c-0.36,1.92-0.84,3.82-1.04,5.76c-0.26,2.42-0.37,4.87-0.39,7.32c-0.04,4.68,0.05,9.36,0.97,13.98c0.52,2.6,1.2,5.13,2.33,7.51
				c2.56,5.43,6.75,8.56,12.41,9.44c2.06,0.32,4.19,0.32,6.28,0.27c2.44-0.06,4.82-0.55,7.12-1.63c2.45-1.1,4.46-2.73,6.05-4.91
				c2.72-3.72,3.82-8.09,4.47-12.6c0.31-2.13,0.41-4.3,0.51-6.46C60.55,35.49,60.43,29.12,58.93,22.85z M47.43,42.42h-5.14
				c0.02,0.39,0.06,2.57-1.08,4.46c-2.88,4.78-8.44,3.38-9.69,2.84c-0.99-0.43-1.89-0.94-2.64-1.64c-0.75-0.7-1.34-1.56-1.77-2.58
				c-0.44-1.02-0.66-2.01-0.66-2.98c0-0.96,0.09-1.76,0.27-2.41c0.32-1.16,0.83-2.11,1.51-2.84c0.69-0.73,1.52-1.44,2.41-2.05v-0.01
				c-0.82-0.64-1.39-1.24-1.62-1.71c-0.23-0.47-0.35-1.02-0.35-1.66c0-1.33,0.42-2.41,1.25-3.25c0.83-0.83,1.89-1.25,3.16-1.25
				c0.45,0,1.01,0.12,1.68,0.36c0.13,0.05,0.36-0.03,0.52-0.14c0.16-0.1,0.35-0.27,0.35-0.27l0.56,0.48c0,0-0.01,0.06-0.02,0.23
				c-0.04,0.7,0.83,3.94,0.83,3.94l-0.78,0.29c0,0-0.65-1.4-0.89-1.85c-0.42-0.81-1.1-1.18-1.98-1.18c-0.87,0-1.54,0.23-2.01,0.69
				c-0.47,0.46-0.7,1.1-0.7,1.91c0,0.45,0.16,0.88,0.48,1.27c0.67,0.82,1.59,1.22,2.74,1.22h1.8l0,1.82h-1.8
				c-1.05,0-2.04,0.34-2.98,1.02c-1.64,1.19-2.46,2.76-2.47,4.74c0,0.8,0.2,1.58,0.6,2.34c0.4,0.76,0.92,1.4,1.56,1.94
				c0.64,0.54,1.36,0.98,2.18,1.3c0.82,0.32,1.56,0.49,2.23,0.49c0.67,0,1.24-0.07,1.71-0.21c0.46-0.14,0.86-0.33,1.19-0.56
				c0.32-0.23,0.62-0.51,0.89-0.82c0.46-0.54,0.76-1.15,1.02-1.8c0.21-0.57,0.21-1.77,0.2-2.14h-5.67c-0.88-0.01-1.1,0.22-1.5,0.62
				l-0.26,0.3l-0.53-0.18l1.12-2.79l12.62,0.01c0.68,0,1-0.14,1.49-0.61l0.32-0.41l0.5,0L47.43,42.42z M53.61,51.59
				c0.15,0.15,0.37,0.15,0.37,0.15v0.5H49.7v-0.5c0,0,0.14-0.01,0.22-0.05c0.06-0.03,0.15-0.09,0.25-0.19
				c0.1-0.1,0.21-0.29,0.32-0.56c0.11-0.27,0.17-0.55,0.17-0.82v-14h-8.34v0.81c0,0.59,0.19,1.09,0.58,1.47
				c0.16,0.15,0.38,0.16,0.38,0.16v0.5h-4.28l0-0.5c0,0,0.14-0.01,0.22-0.05c0.06-0.03,0.15-0.09,0.25-0.19
				c0.1-0.1,0.21-0.29,0.32-0.56c0.11-0.27,0.17-0.55,0.17-0.82V24.43c0-0.59-0.2-1.07-0.58-1.47c-0.14-0.15-0.37-0.15-0.37-0.15
				v-0.5h4.28v0.5c0,0-0.28,0.05-0.47,0.25c-0.1,0.1-0.21,0.29-0.32,0.56c-0.11,0.27-0.17,0.55-0.17,0.82v9.85h8.34v-6.78
				c0-0.59-0.21-1.07-0.58-1.47c-0.14-0.14-0.38-0.15-0.38-0.15v-0.5h4.28l0,0.5c0,0-0.29,0.05-0.47,0.24
				c-0.1,0.1-0.21,0.29-0.32,0.56c-0.11,0.27-0.17,0.55-0.17,0.82v22.62C53.02,50.71,53.21,51.2,53.61,51.59z"/>
		</g>
	</g>
</g>
</svg>
