<?xml version="1.0" encoding="utf-8"?>
<!-- Generator: Adobe Adobe Illustrator 24.2.0, SVG Export Plug-In . SVG Version: 6.00 Build 0)  -->
<svg version="1.1" xmlns="http://www.w3.org/2000/svg" xmlns:xlink="http://www.w3.org/1999/xlink" x="0px" y="0px" width="159px"
	 height="66.5px" viewBox="0 0 159 66.5" style="enable-background:new 0 0 159 66.5;" xml:space="preserve">
<style type="text/css">
	.st0{display:none;fill:#F5F5F5;}
	.st1{fill:#FFFFFF;}
	.st2{display:none;}
	.st3{display:inline;fill:#46080E;}
	.st4{display:inline;fill:#F6F5F1;}
	.st5{display:none;fill:#E6E6E6;}
	.st6{display:none;fill:#F5F5F1;}
	.st7{display:none;fill:#FFFFFF;}
	.st8{fill:#3D090D;}
	.st9{fill:#F4F4F1;}
	.st10{fill:#F5F5F1;}
	.st11{fill:#3D080D;}
	.st12{clip-path:url(#SVGID_7_);}
	.st13{clip-path:url(#SVGID_8_);}
	.st14{clip-path:url(#SVGID_9_);}
	.st15{clip-path:url(#SVGID_10_);}
	.st16{clip-path:url(#SVGID_11_);}
	.st17{clip-path:url(#SVGID_12_);fill:#5B1316;}
	.st18{clip-path:url(#SVGID_19_);}
	.st19{clip-path:url(#SVGID_20_);}
	.st20{clip-path:url(#SVGID_21_);}
	.st21{clip-path:url(#SVGID_22_);}
	.st22{clip-path:url(#SVGID_23_);}
	.st23{clip-path:url(#SVGID_24_);fill:#F5F5F1;}
	.st24{clip-path:url(#SVGID_31_);}
	.st25{clip-path:url(#SVGID_32_);}
	.st26{clip-path:url(#SVGID_33_);}
	.st27{clip-path:url(#SVGID_34_);}
	.st28{clip-path:url(#SVGID_35_);}
	.st29{clip-path:url(#SVGID_36_);fill:#5B1316;}
	.st30{clip-path:url(#SVGID_43_);}
	.st31{clip-path:url(#SVGID_44_);}
	.st32{clip-path:url(#SVGID_45_);}
	.st33{clip-path:url(#SVGID_46_);}
	.st34{clip-path:url(#SVGID_47_);}
	.st35{clip-path:url(#SVGID_48_);fill:#F4F4F1;}
	.st36{fill:#F6F5F1;}
	.st37{opacity:0.502;fill:#F5F5F1;}
	.st38{opacity:0.5216;fill:#F5F5F1;}
	.st39{fill:#5B0F0A;}
	.st40{fill:#CEBEA5;}
	.st41{fill:#AB9A80;}
	.st42{fill:#F5F4F1;}
	.st43{fill:#5C1116;}
	.st44{fill:#CDBEA5;}
	.st45{fill:#5B1316;}
	.st46{opacity:0.5882;}
	.st47{fill:#5B100B;}
	.st48{fill:#CEBFA5;}
	.st49{fill:none;stroke:#B5B4AD;stroke-width:0.4728;stroke-miterlimit:10;}
	.st50{fill:#A18F72;}
	.st51{opacity:0.8588;}
	.st52{opacity:0.4902;}
	.st53{opacity:0.3098;}
	.st54{opacity:0.2902;}
	.st55{opacity:0.4902;fill:#F4F4F1;}
	.st56{display:inline;}
	.st57{opacity:0.4902;fill:#F5F5F1;}
</style>
<g id="Calque_3">
</g>
<g id="Calque_2" class="st2">
</g>
<g id="Calque_1">
	<path class="st47" d="M53.41,55.96c-0.27,0.42-0.53,0.8-0.79,1.19c-0.03,0.04-0.07,0.08-0.08,0.12c-0.2,0.59-0.59,1.08-0.95,1.57
		c-0.22,0.29-0.47,0.56-0.7,0.84c-0.06,0.08-0.12,0.16-0.18,0.24c-0.15,0.2-0.31,0.39-0.46,0.58c-0.09,0.12-0.21,0.21-0.29,0.34
		c-0.38,0.59-0.96,0.84-1.62,0.96c-0.07,0.01-0.13,0.02-0.22,0.06c-0.39,0.08-0.76,0.12-1.12,0.18c-0.24,0.04-0.46-0.03-0.68-0.1
		c-0.27-0.09-0.4-0.28-0.43-0.55c-0.03-0.27,0.08-0.5,0.31-0.63c0.18-0.11,0.39-0.18,0.6-0.23c0.43-0.1,0.83-0.26,1.2-0.49
		c0.11-0.07,0.22-0.16,0.34-0.26c0.18-0.21,0.35-0.4,0.51-0.58c0.32-0.36,0.6-0.75,0.96-1.09c0.74-0.7,1.39-1.48,1.98-2.31
		c0.13-0.19,0.22-0.41,0.34-0.61c0.2-0.33,0.41-0.64,0.61-0.97c0.14-0.24,0.3-0.48,0.21-0.78c-0.08-0.08-0.16-0.06-0.24-0.04
		c-0.24,0.06-0.48,0.12-0.72,0.19c-0.23,0.07-0.45,0.07-0.68,0c-0.29-0.08-0.43-0.22-0.46-0.5c-0.02-0.21,0.12-0.48,0.35-0.55
		c0.57-0.17,1.11-0.46,1.73-0.43c0.23,0.01,0.47,0.01,0.7-0.14c0.22-0.15,0.36-0.34,0.47-0.54c0.66-1.21,1.41-2.37,2.15-3.53
		c0.38-0.6,0.69-1.25,1.02-1.88c0.24-0.45,0.49-0.9,0.8-1.32c0.34-0.45,0.63-0.94,0.99-1.37c0.04-0.05,0.06-0.12,0.1-0.21
		c0.26-0.34,0.51-0.65,0.76-0.96c0.05-0.06,0.1-0.13,0.17-0.18c0.45-0.38,0.8-0.85,1.17-1.29c0.38-0.45,0.76-0.89,1.17-1.29
		c0.08-0.08,0.19-0.14,0.27-0.22c0.16-0.16,0.35-0.32,0.47-0.51c0.31-0.53,0.75-0.88,1.36-1.08c0.15-0.01,0.27-0.01,0.38-0.02
		c0.2-0.02,0.35,0.08,0.49,0.2c0.09,0.08,0.13,0.18,0.14,0.31c0.02,0.25-0.05,0.49-0.12,0.73c-0.18,0.58-0.38,1.17-0.51,1.76
		c-0.14,0.6-0.32,1.18-0.56,1.8c-0.15,0.4-0.26,0.75-0.38,1.09c-0.12,0.34-0.22,0.69-0.39,1.02c-0.14,0.28-0.23,0.59-0.33,0.88
		c-0.03,0.09-0.06,0.19-0.07,0.29c-0.06,0.46-0.17,0.92-0.36,1.34c-0.25,0.55-0.31,1.15-0.53,1.71c-0.08,0.69-0.29,1.36-0.42,2.05
		c-0.08,0.42-0.18,0.84-0.2,1.28c-0.01,0.15-0.05,0.29-0.08,0.44c-0.08,0.37-0.18,0.74-0.12,1.13c0.01,0.09-0.02,0.2-0.03,0.29
		c-0.03,0.2-0.07,0.39-0.07,0.59c-0.01,0.53-0.01,1.07-0.01,1.6c0,0.07,0,0.13,0.01,0.2c0.02,0.14,0.13,0.23,0.27,0.25
		c0.16,0.02,0.3-0.01,0.43-0.1c0.33-0.22,0.68-0.43,0.96-0.72c0.14-0.14,0.29-0.28,0.44-0.41c0.32-0.27,0.59-0.58,0.77-0.97
		c0.12-0.26,0.24-0.51,0.37-0.76c0.55-0.96,1.11-1.92,1.66-2.89c0.39-0.69,0.93-1.25,1.52-1.77c0.09-0.08,0.18-0.14,0.27-0.22
		c0.48-0.42,1.03-0.38,1.44,0.1c0.1,0.11,0.18,0.23,0.2,0.39c0.01,0.08,0.05,0.16,0.09,0.27c0.05,0.21,0.08,0.38,0.11,0.56
		c0.11,0.5,0.11,1.01-0.01,1.58c-0.09,0.41-0.18,0.75-0.26,1.09c-0.14,0.56-0.29,1.12-0.41,1.69c-0.04,0.21-0.03,0.43-0.02,0.64
		c0.01,0.13,0.19,0.22,0.31,0.16c0.09-0.04,0.18-0.09,0.25-0.16c0.17-0.18,0.32-0.38,0.47-0.57c0.13-0.15,0.27-0.29,0.39-0.45
		c0.17-0.22,0.32-0.47,0.5-0.69c0.47-0.59,0.81-1.26,1.23-1.88c0.2-0.29,0.33-0.61,0.47-0.93c0.24-0.55,0.54-1.07,0.79-1.61
		c0.27-0.59,0.97-0.45,1.23-0.08c0.1,0.15,0.18,0.32,0.25,0.49c0.05,0.12,0.09,0.25,0.16,0.39c0.03,0.17,0.07,0.3,0.21,0.41
		c0.29,0.23,0.61,0.38,0.99,0.41c0.69,0.05,1.36-0.05,2.01-0.24c0.26-0.08,0.46-0.26,0.64-0.46c0.5-0.57,1.14-0.96,1.75-1.44
		c0.16-0.03,0.29-0.07,0.42-0.06c0.19,0.01,0.35-0.03,0.52-0.12c0.31-0.16,0.65-0.13,0.97-0.01c0.68,0.26,0.99,0.81,1.06,1.5
		c0.06,0.57,0.01,1.13-0.21,1.66c-0.16,0.38-0.22,0.8-0.46,1.15c-0.02,0.03,0,0.1,0,0.16c0.21,0.15,0.46,0.19,0.7,0.15
		c0.31-0.05,0.62-0.12,0.92-0.21c0.31-0.09,0.58-0.24,0.78-0.51c0.04-0.05,0.09-0.11,0.11-0.17c0.1-0.43,0.43-0.73,0.59-1.16
		c0.14-0.18,0.28-0.32,0.41-0.47c0.08-0.09,0.16-0.17,0.21-0.28c0.14-0.32,0.39-0.53,0.65-0.73c0.29-0.22,0.59-0.43,0.87-0.67
		c0.36-0.3,0.78-0.49,1.2-0.7c0.06-0.03,0.12-0.06,0.19-0.07c0.4-0.01,0.76-0.2,1.16-0.26c0.18-0.03,0.36-0.04,0.58-0.07
		c0.51,0.02,0.84,0.3,1.13,0.63c0.13,0.15,0.19,0.34,0.21,0.55c0.04,0.49-0.17,0.91-0.38,1.32c-0.2,0.38-0.49,0.66-0.9,0.81
		c-0.17,0.07-0.34,0.12-0.53,0.11c-0.2-0.01-0.4-0.02-0.67-0.05c-0.11-0.05-0.16-0.07-0.19-0.11c-0.32-0.28-0.32-0.58-0.01-0.84
		c0.13-0.11,0.27-0.19,0.41-0.29c0.2-0.15,0.4-0.31,0.52-0.53c0.08-0.14-0.01-0.31-0.18-0.33c-0.2-0.02-0.39,0.03-0.58,0.12
		c-0.4,0.2-0.78,0.44-1.15,0.69c-0.87,0.59-1.45,1.41-1.9,2.33c-0.06,0.13-0.11,0.28-0.14,0.42c-0.1,0.44-0.18,0.88-0.27,1.32
		c-0.09,0.39,0,0.76,0.12,1.13c0.07,0.22,0.22,0.36,0.44,0.44c0.36,0.13,0.72,0.12,1.08,0.04c1.11-0.26,2.06-0.82,2.9-1.58
		c0.04-0.03,0.09-0.07,0.1-0.11c0.02-0.16,0.2-0.16,0.26-0.27c0.72-0.58,1.46-1.13,2.13-1.78c0.05-0.05,0.1-0.1,0.16-0.11
		c0.25-0.06,0.37-0.25,0.5-0.45c0.1-0.15,0.21-0.3,0.3-0.46c0.4-0.74,0.97-1.33,1.56-1.92c0.19-0.19,0.38-0.37,0.6-0.57
		c0.31-0.21,0.6-0.41,0.89-0.59c0.11-0.07,0.24-0.11,0.36-0.16c0.61-0.26,1.2-0.19,1.77,0.14c0.16,0.09,0.29,0.22,0.42,0.34
		c0.1,0.09,0.18,0.18,0.29,0.28c0.21-0.09,0.31-0.27,0.45-0.41c0.11-0.11,0.21-0.22,0.29-0.34c0.19-0.3,0.45-0.36,0.82-0.22
		c0.17,0.38,0.23,0.73,0.08,1.08c-0.04,0.08-0.02,0.19-0.06,0.31c-0.17,0.13-0.17,0.32-0.24,0.46c-0.27,0.51-0.56,1.02-0.8,1.55
		c-0.24,0.53-0.59,0.99-0.78,1.55c-0.13,0.37-0.33,0.72-0.47,1.09c-0.12,0.32-0.26,0.64-0.31,0.99c-0.02,0.17,0.15,0.33,0.31,0.29
		c0.06-0.01,0.13-0.03,0.18-0.07c0.35-0.23,0.71-0.44,1.03-0.69c0.35-0.28,0.67-0.6,1-0.9c0.06-0.05,0.09-0.13,0.17-0.22
		c0.25-0.27,0.46-0.52,0.68-0.77c0.36-0.42,0.65-0.88,0.88-1.38c0.37-0.8,0.76-1.59,1.14-2.38c0.2-0.42,0.42-0.82,0.63-1.24
		c0.24-0.49,0.47-0.99,0.7-1.48c0.11-0.23,0.22-0.45,0.31-0.68c0.07-0.17,0-0.36-0.24-0.39c-0.59-0.09-1.16,0.07-1.73,0.14
		c-0.33,0.04-0.66,0.09-0.96,0.24c-0.03,0.01-0.07,0.01-0.1,0.02c-0.21,0.05-0.41,0.1-0.61,0.21c-0.28,0.15-0.57,0.15-0.86,0.01
		c-0.22-0.17-0.23-0.38-0.09-0.6c0.05-0.08,0.12-0.15,0.21-0.25c0.42-0.15,0.82-0.24,1.24-0.26c0.16,0,0.32-0.07,0.49-0.09
		c0.56-0.08,1.11-0.16,1.68-0.2c0.43-0.03,0.86-0.07,1.28-0.19c0.13-0.04,0.25-0.08,0.37-0.14c0.05-0.03,0.11-0.08,0.13-0.14
		c0.11-0.22,0.2-0.45,0.32-0.73c0.02-0.06,0.01-0.11,0.01-0.11s0,0.01,0,0.01c0.2-0.21,0.28-0.48,0.39-0.74
		c0.17-0.38,0.37-0.74,0.62-1.08c0.16-0.22,0.33-0.42,0.58-0.53c0.29-0.13,0.51-0.09,0.73,0.11c0.19,0.17,0.26,0.39,0.18,0.63
		c-0.13,0.38-0.25,0.76-0.41,1.12c-0.2,0.47-0.38,0.96-0.68,1.39c-0.02,0.04-0.01,0.09-0.02,0.14c0.03,0.02,0.06,0.05,0.09,0.06
		c0.33,0.04,0.66,0.07,0.99,0.11c0.08,0.01,0.17,0.01,0.25-0.01c0.78-0.18,1.59-0.14,2.42-0.22c0.18,0.01,0.31,0.01,0.44,0.04
		c0.22,0.05,0.3,0.28,0.17,0.47c-0.12,0.18-0.29,0.29-0.49,0.31c-0.38,0.04-0.76,0.07-1.14,0.1c-0.18,0.01-0.37,0.02-0.55,0.04
		c-0.18,0.01-0.36,0.06-0.54,0.05c-0.63-0.03-1.26,0.04-1.9,0.01c-0.06,0-0.13,0.03-0.21,0.08c-0.01,0.03-0.03,0.03-0.06,0.04
		c-0.07,0.07-0.1,0.13-0.14,0.19c-0.28,0.42-0.5,0.87-0.76,1.37c-0.06,0.07-0.06,0.1-0.04,0.13c-0.02,0.04-0.03,0.08-0.08,0.18
		c-0.34,0.73-0.66,1.41-0.95,2.1c-0.3,0.72-0.56,1.45-0.85,2.18c-0.3,0.76-0.54,1.53-0.66,2.34c-0.03,0.21-0.05,0.44-0.02,0.65
		c0.05,0.4,0.31,0.61,0.73,0.58c0.05,0,0.1-0.01,0.15-0.03c0.25-0.09,0.5-0.17,0.73-0.32c0.39-0.27,0.73-0.57,1.02-0.94
		c0.24-0.22,0.48-0.45,0.73-0.67c0.07-0.07,0.15-0.13,0.22-0.19c0.07-0.06,0.16-0.06,0.22,0c0.06,0.06,0.09,0.14,0.04,0.23
		c-0.11,0.19-0.19,0.39-0.32,0.55c-0.26,0.32-0.56,0.61-0.84,0.91c-0.06,0.06-0.11,0.13-0.17,0.22c-0.52,0.51-1.1,0.9-1.65,1.33
		c-0.38,0.3-0.8,0.47-1.29,0.43c-0.34-0.03-0.65-0.13-0.92-0.34c-0.37-0.27-0.47-0.67-0.51-1.09c-0.02-0.18,0.01-0.36,0.03-0.55
		c0.02-0.3,0.05-0.6,0.08-0.89c0-0.04-0.03-0.09-0.05-0.14c-0.05,0.03-0.11,0.04-0.14,0.07c-0.36,0.41-0.72,0.83-1.09,1.27
		c-0.2,0.24-0.38,0.46-0.56,0.67c-0.25,0.27-0.54,0.49-0.85,0.69c-0.25,0.16-0.49,0.35-0.73,0.52c-0.29,0.21-0.63,0.3-0.99,0.28
		c-0.35-0.02-0.63-0.24-0.72-0.58c-0.05-0.19-0.07-0.39-0.11-0.59c-0.04-0.19-0.1-0.38-0.16-0.57c-0.03-0.08-0.14-0.1-0.21-0.06
		c-0.04,0.02-0.09,0.05-0.13,0.08c-0.27,0.25-0.53,0.5-0.81,0.78c-0.49,0.33-0.95,0.65-1.44,0.94c-0.47,0.29-0.99,0.38-1.53,0.25
		c-0.44-0.1-0.71-0.4-0.83-0.84c-0.12-0.45-0.08-0.89,0.06-1.32c0.08-0.25,0.15-0.51,0.22-0.76c0.02-0.07,0-0.15-0.01-0.29
		c-0.68,0.56-1.24,1.16-1.86,1.73c-0.1,0.05-0.18,0.06-0.25,0.11c-0.46,0.33-0.9,0.69-1.38,0.98c-0.44,0.26-0.93,0.45-1.4,0.66
		c-0.11,0.05-0.22,0.08-0.33,0.12c-0.66,0.25-1.33,0.26-2.04,0.03c-0.17-0.11-0.29-0.23-0.43-0.31c-0.21-0.11-0.33-0.27-0.4-0.49
		c-0.04-0.12-0.1-0.25-0.15-0.37c-0.04-0.09-0.1-0.18-0.12-0.28c-0.09-0.49-0.17-0.98-0.27-1.51c-0.03,0-0.13-0.05-0.18-0.02
		c-0.4,0.23-0.83,0.19-1.27,0.18c-0.07,0-0.13-0.01-0.2-0.01c-0.15-0.01-0.26,0.05-0.35,0.16c-0.07,0.09-0.15,0.19-0.19,0.29
		c-0.1,0.29-0.31,0.51-0.49,0.75c-0.22,0.29-0.48,0.55-0.71,0.83c-0.2,0.25-0.48,0.41-0.75,0.62c-0.33,0.23-0.62,0.46-0.94,0.63
		c-0.86,0.47-1.75,0.64-2.66,0.14c-0.66-0.36-1.02-0.92-1.05-1.69c-0.03-0.7,0.16-1.35,0.36-2c0.09-0.3,0.23-0.59,0.39-0.86
		c0.23-0.38,0.43-0.78,0.66-1.21c0.16-0.06,0.24-0.14,0.26-0.32c-0.17,0.04-0.32,0.09-0.48,0.11c-0.15,0.02-0.3-0.01-0.45,0
		c-0.17,0.01-0.33,0.06-0.49,0.05c-0.28-0.01-0.56-0.06-0.84-0.01c-0.33-0.12-0.65-0.25-0.92-0.49c-0.11-0.1-0.24-0.17-0.36-0.25
		c-0.25,0.21-0.45,0.42-0.58,0.7c-0.11,0.24-0.27,0.46-0.42,0.67c-0.3,0.42-0.57,0.86-0.81,1.32c-0.28,0.52-0.65,0.97-1.04,1.4
		c-0.4,0.44-0.76,0.92-1.12,1.4c-0.1,0.13-0.2,0.26-0.37,0.37c-0.35,0.25-0.63,0.53-0.87,0.86c-0.21,0.28-0.48,0.51-0.73,0.76
		c-0.15,0.14-0.34,0.22-0.53,0.26c-0.48,0.11-0.91-0.2-0.96-0.69c-0.04-0.37-0.03-0.73,0.04-1.1c0.12-0.61,0.29-1.2,0.51-1.77
		c0.4-1.02,0.78-2.06,1.1-3.11c0.04-0.14,0.08-0.29,0.11-0.44c0.05-0.19,0.01-0.37-0.08-0.53c-0.02-0.03-0.1-0.01-0.17-0.02
		c0.06-0.05,0.1-0.09,0.14-0.13c-0.14-0.25-0.35-0.33-0.55-0.18c-0.26,0.18-0.49,0.4-0.65,0.69c-0.4,0.69-0.79,1.39-1.19,2.08
		c-0.07,0.13-0.15,0.26-0.25,0.38c-0.28,0.34-0.49,0.71-0.69,1.1c-0.14,0.27-0.3,0.52-0.47,0.8c-0.04,0.05-0.07,0.07-0.09,0.09
		c-0.41,0.69-0.99,1.25-1.52,1.84c-0.43,0.47-0.97,0.81-1.52,1.13c-0.66,0.37-1.4,0.16-1.9-0.27c-0.16-0.14-0.31-0.31-0.42-0.54
		c-0.2-0.45-0.24-0.89-0.23-1.35c0.01-0.28,0.02-0.57,0.02-0.85c0-0.07-0.02-0.14,0-0.2c0.1-0.31,0.07-0.63,0.08-0.94
		c0-0.23,0.02-0.46,0.08-0.69c0.06-0.19,0.08-0.39,0.08-0.59c-0.01-0.27-0.14-0.38-0.42-0.39c-0.47-0.02-0.93-0.03-1.39,0.07
		c-0.23,0.05-0.46,0.03-0.7,0.03c-0.18,0-0.36,0.03-0.54,0.09c-0.15,0.06-0.31,0.09-0.49,0.09c-0.26,0-0.47,0.12-0.62,0.36
		c-0.26,0.43-0.53,0.85-0.79,1.27c-0.25,0.41-0.49,0.83-0.74,1.24C53.44,55.79,53.44,55.86,53.41,55.96z M80.78,52.92
		c-0.33-0.24-0.5-0.62-0.8-0.89c-0.07-0.06-0.1-0.17-0.11-0.27c-0.02-0.13-0.02-0.26-0.14-0.38c-0.23,0.12-0.37,0.33-0.53,0.51
		c-0.33,0.38-0.54,0.84-0.81,1.26c-0.46,0.73-0.58,1.51-0.42,2.35c0.01,0.06,0.02,0.14,0.06,0.19c0.21,0.27,0.45,0.49,0.84,0.44
		c0.18-0.03,0.36-0.05,0.53-0.14c0.64-0.35,1.18-0.81,1.56-1.52c0.2-0.35,0.45-0.68,0.54-1.11C81.27,53.23,81.04,53.1,80.78,52.92z
		 M96.87,50c-0.35,0.45-0.62,0.94-0.92,1.43c-0.1,0.16-0.21,0.31-0.27,0.47c-0.22,0.59-0.5,1.16-0.61,1.79
		c-0.02,0.1-0.04,0.2-0.05,0.29c-0.01,0.3,0.11,0.46,0.39,0.57c0.16,0.06,0.3,0.01,0.43-0.06c0.44-0.24,0.84-0.53,1.25-0.91
		c0.09-0.08,0.17-0.16,0.26-0.23c0.63-0.5,1.19-1.06,1.63-1.74c0.44-0.67,0.79-1.39,1.14-2.11c0.04-0.09,0.08-0.19,0.1-0.28
		c0.02-0.08,0.03-0.17,0-0.24c-0.19-0.44-0.59-0.81-1.25-0.62c-0.87,0.25-1.54,0.77-2.03,1.53C96.94,49.91,96.94,49.95,96.87,50z
		 M58.92,45.44c-0.29,0.63-0.58,1.27-0.88,1.9c-0.3,0.61-0.61,1.22-0.92,1.83c-0.06,0.12-0.13,0.23-0.22,0.33
		c-0.5,0.62-0.75,1.37-1.05,2.09c-0.04,0.09,0.04,0.2,0.16,0.2c0.1,0,0.2-0.01,0.3-0.03c0.16-0.02,0.33-0.06,0.49-0.08
		c0.46-0.08,0.93-0.02,1.39-0.07c0.3-0.03,0.6,0.04,0.96-0.08c0.24,0.02,0.41-0.1,0.53-0.29c0.05-0.08,0.1-0.17,0.14-0.27
		c0.27-0.73,0.5-1.48,0.72-2.23c0.2-0.65,0.36-1.31,0.64-1.94c0.04-0.09,0.07-0.19,0.07-0.29c0-0.1,0.05-0.19,0.07-0.28
		c0.09-0.38,0.34-0.72,0.27-1.14c-0.01-0.06,0.03-0.13,0.07-0.18c0.21-0.27,0.22-0.62,0.38-0.92c0.04-0.07,0.02-0.16,0.04-0.24
		c0.02-0.11,0.03-0.23,0.07-0.34c0.2-0.61,0.36-1.24,0.65-1.83c0.08-0.16,0.15-0.33,0.22-0.5c0.06-0.17,0.12-0.34,0.02-0.52
		c-0.21,0-0.35,0.09-0.48,0.24c-0.38,0.46-0.76,0.93-1.16,1.37c-0.56,0.62-1.04,1.29-1.5,1.99c-0.24,0.36-0.48,0.72-0.8,1.02
		C59.04,45.23,59.01,45.31,58.92,45.44z M81.55,52.2c0.06,0.03,0.11,0.07,0.18,0.09c0.15,0.04,0.22,0.02,0.3-0.1
		c0.04-0.05,0.08-0.11,0.1-0.17c0.19-0.42,0.4-0.83,0.5-1.29c0.05-0.25,0.08-0.49,0.06-0.74c-0.02-0.29-0.21-0.43-0.46-0.54
		c-0.23-0.1-0.46-0.1-0.64,0.09c-0.14,0.14-0.25,0.31-0.37,0.47c-0.02,0.02-0.02,0.06-0.02,0.09c0.03,0.07,0.07,0.14,0.12,0.24
		c-0.28-0.01-0.36,0.2-0.49,0.34c-0.23,0.27-0.22,0.74,0.01,1.01C81.02,51.91,81.23,52.06,81.55,52.2z"/>
	<g>
		<path class="st47" d="M24.43,8.35c-0.65-0.26-1.32-0.3-2-0.3c-3.4,0-6.8,0-10.2,0c-0.09,0-0.17,0-0.28,0c0,4.09,0,8.16,0,12.25
			c0.08,0.01,0.16,0.02,0.24,0.02c2.37,0,4.73,0.01,7.1-0.01c0.62-0.01,1.24-0.07,1.84-0.2c0.86-0.18,1.2-0.6,1.32-1.48
			c0.02-0.17,0.04-0.35,0.06-0.55c0.21,0,0.41,0,0.64,0c0,2.01,0,4.02,0,6.05c-0.2,0-0.4,0-0.63,0c-0.01-0.07-0.02-0.14-0.03-0.21
			c-0.03-0.21-0.04-0.43-0.09-0.64c-0.15-0.7-0.62-1.08-1.3-1.2c-0.55-0.09-1.11-0.18-1.67-0.18c-2.42-0.02-4.83-0.01-7.25-0.01
			c-0.06,0-0.13,0.01-0.22,0.02c0,4.25,0,8.49,0,12.74c0.1,0.01,0.18,0.01,0.27,0.01c3.56,0,7.11,0.01,10.67-0.01
			c0.48,0,0.98-0.05,1.45-0.14c0.95-0.17,1.57-0.78,1.95-1.64c0.35-0.78,0.52-1.62,0.66-2.46c0.02-0.1,0.04-0.2,0.07-0.32
			c0.22,0.03,0.41,0.05,0.65,0.09c-0.29,2.03-0.57,4.03-0.86,6.05c-6.68,0-13.36,0-20.06,0c0-0.21,0-0.43,0-0.66
			c0.26-0.04,0.51-0.06,0.75-0.11c0.65-0.12,1.06-0.51,1.24-1.15c0.17-0.61,0.23-1.24,0.23-1.86c0.01-1.77,0.01-3.53,0.01-5.3
			c0-4.34,0-8.68,0-13.02c0-1.46,0-2.93-0.03-4.39C8.95,9.29,8.85,8.82,8.75,8.35C8.6,7.7,8.15,7.33,7.5,7.21
			c-0.24-0.04-0.48-0.07-0.74-0.1c0-0.21,0-0.42,0-0.65c6.53,0,13.05,0,19.6,0c0.29,2.01,0.57,4.01,0.86,6.04
			c-0.24,0.03-0.44,0.06-0.66,0.09c-0.09-0.45-0.16-0.86-0.25-1.27c-0.15-0.68-0.34-1.35-0.71-1.95
			C25.32,8.92,24.95,8.56,24.43,8.35z"/>
		<path class="st47" d="M61.17,20.78c-0.01,0.1-0.02,0.17-0.02,0.24c0,3.81,0,7.61,0.01,11.42c0,0.65,0.06,1.28,0.24,1.91
			c0.22,0.78,0.77,1.1,1.52,1.19c0.15,0.02,0.31,0.03,0.48,0.04c0,0.22,0,0.42,0,0.66c-2.47,0-4.94,0-7.42,0c0-0.23,0-0.43,0-0.65
			c0.24-0.03,0.48-0.06,0.71-0.09c0.75-0.12,1.2-0.58,1.33-1.31c0.1-0.59,0.19-1.19,0.2-1.78c0.03-1.33,0.01-2.67,0.01-4
			c0-5.9,0-11.8-0.01-17.71c0-0.66-0.05-1.32-0.14-1.97c-0.16-1.11-0.69-1.57-1.81-1.64c-0.09-0.01-0.18-0.01-0.28-0.02
			c0-0.22,0-0.43,0-0.67c2.48,0,4.94,0,7.42,0c0,0.24,0,0.44,0,0.65c-0.23,0.03-0.44,0.05-0.65,0.08c-0.78,0.11-1.26,0.55-1.39,1.31
			c-0.1,0.56-0.18,1.13-0.19,1.7c-0.03,1.16,0,2.32,0,3.49c0,1.74-0.01,3.48-0.01,5.22c0,0.1,0.01,0.2,0.02,0.33
			c5.87,0,8.52,0,14.4,0c0.01-0.1,0.02-0.18,0.02-0.27c0-1.66,0-3.32,0-4.98c0-1.41,0-2.81-0.04-4.22
			c-0.01-0.48-0.11-0.97-0.22-1.44c-0.15-0.64-0.59-0.99-1.22-1.11c-0.25-0.05-0.5-0.07-0.77-0.11c0-0.21,0-0.42,0-0.66
			c2.47,0,4.94,0,7.43,0c0,0.22,0,0.43,0,0.66c-0.16,0.02-0.32,0.03-0.47,0.05c-1.03,0.14-1.47,0.55-1.63,1.57
			c-0.08,0.5-0.13,1-0.14,1.5c-0.02,1.02-0.01,2.04-0.01,3.07c0,6.18,0,12.37,0,18.55c0,0.54,0.03,1.08,0.07,1.62
			c0.02,0.29,0.08,0.59,0.16,0.87c0.22,0.8,0.69,1.17,1.56,1.25c0.15,0.01,0.29,0.02,0.46,0.04c0,0.22,0,0.43,0,0.67
			c-2.46,0-4.94,0-7.43,0c0-0.21,0-0.43,0-0.66c0.26-0.04,0.51-0.06,0.75-0.11c0.66-0.12,1.06-0.51,1.25-1.15
			c0.18-0.62,0.23-1.25,0.23-1.89c0.01-2.48,0.01-4.96,0.01-7.44c0-1.3,0-2.59,0-3.89c0-0.1,0-0.19,0-0.34
			C72.57,20.78,64.04,20.78,61.17,20.78z"/>
		<path class="st47" d="M30.78,26.54c0-4.15,0-8.27,0-12.39c0-1.46,0-2.93-0.03-4.39c-0.01-0.44-0.09-0.88-0.18-1.32
			c-0.15-0.75-0.63-1.16-1.38-1.27c-0.21-0.03-0.42-0.05-0.65-0.08c0-0.22,0-0.43,0-0.66c2.48,0,4.95,0,7.43,0c0,0.23,0,0.44,0,0.67
			c-0.11,0.01-0.21,0.02-0.32,0.03c-1.09,0.07-1.62,0.53-1.79,1.61c-0.08,0.48-0.13,0.97-0.13,1.46c-0.02,1.15,0.01,2.31,0,3.46
			c0,4.22-0.01,8.44-0.01,12.66c0,2.68,0,5.36,0,8.04c0,0.1,0.01,0.2,0.02,0.32c0.11,0.01,0.19,0.01,0.28,0.01
			c3.55,0,7.09,0.01,10.64-0.01c0.51,0,1.02-0.05,1.52-0.14c1.02-0.19,1.63-0.88,2-1.8c0.29-0.72,0.45-1.47,0.57-2.23
			c0.02-0.11,0.04-0.23,0.07-0.37c0.22,0.03,0.42,0.05,0.66,0.08c-0.29,2.03-0.57,4.02-0.86,6.05c-6.7,0-13.39,0-20.09,0
			c0-0.21,0-0.42,0-0.65c0.26-0.04,0.51-0.06,0.76-0.1c0.65-0.12,1.06-0.5,1.25-1.15c0.17-0.61,0.23-1.24,0.23-1.87
			C30.78,30.52,30.78,28.54,30.78,26.54z"/>
		<path class="st47" d="M111.33,36.28c-0.53,0-1.04,0-1.55,0c-0.45,0-0.9,0.01-1.35,0.01c-0.46,0-0.93,0-1.39,0
			c-0.49,0-0.99,0-1.48,0c-0.1,0-0.2,0-0.32,0c0-0.25,0-0.46,0-0.69c0.12-0.01,0.22-0.02,0.32-0.02c0.68-0.01,1.36-0.04,2.02-0.22
			c0.11-0.03,0.23-0.07,0.33-0.12c0.65-0.28,0.92-0.74,0.73-1.42c-0.18-0.65-0.42-1.29-0.68-1.92c-1.14-2.85-2.29-5.69-3.43-8.53
			c-0.12-0.31-0.25-0.62-0.37-0.93c-0.02-0.06-0.06-0.11-0.09-0.18c-3.68,0-7.35,0-11.05,0c-0.09,0.21-0.18,0.43-0.27,0.65
			c-1.28,3.18-2.56,6.36-3.83,9.54c-0.18,0.44-0.34,0.89-0.45,1.34c-0.18,0.73,0.09,1.26,0.81,1.47c0.53,0.16,1.1,0.22,1.65,0.29
			c0.3,0.04,0.62,0.01,0.95,0.01c0,0.27,0,0.48,0,0.71c-2.94,0-5.9,0-8.87,0c0-0.23,0-0.43,0-0.67c0.12-0.01,0.22-0.02,0.33-0.03
			c0.67-0.02,1.31-0.14,1.9-0.47c0.66-0.36,1.12-0.93,1.46-1.58c0.37-0.72,0.7-1.47,1.01-2.22c2.27-5.61,4.52-11.23,6.78-16.85
			c0.71-1.76,1.42-3.53,2.12-5.3c0.08-0.2,0.12-0.41,0.16-0.62c0.11-0.69-0.18-1.14-0.87-1.28c-0.4-0.08-0.81-0.1-1.21-0.14
			C94.58,7.1,94.49,7.1,94.39,7.1c0-0.23,0-0.43,0-0.66c2.15,0,4.29,0,6.45,0c0.13,0.33,0.27,0.67,0.41,1.01
			c0.8,1.97,1.59,3.94,2.39,5.91c1.74,4.29,3.47,8.59,5.21,12.88c0.83,2.04,1.64,4.1,2.49,6.13c0.24,0.58,0.56,1.13,0.9,1.66
			c0.65,1.02,1.63,1.47,2.8,1.54c0.16,0.01,0.32,0.02,0.49,0.03c0.02,0,0.04,0.02,0.08,0.04c0,0.2,0,0.41,0,0.64
			C114.19,36.28,112.77,36.28,111.33,36.28z M99.55,10.96c-0.31-0.77-0.62-1.54-0.93-2.31c-0.02,0-0.05,0-0.07,0
			c-1.61,3.99-3.22,7.98-4.83,11.99c3.27,0,6.49,0,9.74,0C102.15,17.4,100.85,14.2,99.55,10.96z"/>
		<path class="st47" d="M119.77,10.27c-0.02-0.66-0.06-1.29-0.23-1.91c-0.18-0.68-0.62-1.05-1.3-1.17c-0.23-0.04-0.45-0.06-0.7-0.09
			c0-0.21,0-0.42,0-0.66c2.47,0,4.94,0,7.42,0c0,0.22,0,0.43,0,0.66c-0.07,0.01-0.14,0.02-0.21,0.03c-0.21,0.03-0.41,0.04-0.61,0.09
			c-0.68,0.14-1.08,0.57-1.21,1.23c-0.1,0.54-0.15,1.1-0.21,1.65c-0.02,0.25-0.01,0.5-0.01,0.75c0,5.35,0,10.7,0,16.05
			c0,1.72-0.02,3.45,0.01,5.17c0.01,0.69,0.07,1.39,0.19,2.07c0.18,0.95,0.69,1.35,1.66,1.43c0.12,0.01,0.25,0.02,0.39,0.03
			c0,0.23,0,0.44,0,0.67c-2.47,0-4.94,0-7.42,0c0-0.23,0-0.44,0-0.66c0.27-0.04,0.52-0.07,0.77-0.11c0.62-0.12,1.03-0.49,1.21-1.1
			c0.19-0.64,0.25-1.29,0.25-1.95c0.01-1.66,0.01-3.32,0.01-4.97C119.77,21.75,119.77,16.02,119.77,10.27z"/>
		<path class="st47" d="M138.12,19.08c2.37,0.27,4.1,1.52,5.44,3.39c0.81,1.14,1.4,2.41,1.96,3.68c0.66,1.48,1.27,2.98,1.92,4.47
			c0.43,0.98,0.85,1.96,1.46,2.84c0.56,0.82,1.24,1.52,2.21,1.84c0.46,0.15,0.95,0.19,1.43,0.28c0.09,0.02,0.17,0.01,0.28,0.02
			c0,0.23,0,0.44,0,0.68c-0.12,0-0.25,0-0.37,0c-0.37-0.01-0.73-0.02-1.1-0.05c-0.51-0.04-1.03-0.08-1.54-0.16
			c-1.37-0.2-2.59-0.69-3.5-1.78c-0.58-0.69-0.98-1.48-1.38-2.27c-0.76-1.52-1.31-3.13-1.95-4.69c-0.5-1.21-1-2.43-1.59-3.59
			c-0.82-1.6-2.18-2.56-3.91-3c-0.81-0.21-1.63-0.28-2.47-0.28c-0.1,0-0.23,0.03-0.3,0.1c-0.82,0.79-1.63,1.6-2.44,2.4
			c-0.03,0.03-0.05,0.06-0.08,0.1c0,0.08,0,0.17,0,0.25c0,2.91,0,5.82,0,8.73c0,0.73,0.02,1.45,0.2,2.16
			c0.23,0.89,0.67,1.27,1.58,1.37c0.15,0.02,0.29,0.02,0.46,0.04c0,0.22,0,0.43,0,0.67c-2.46,0-4.92,0-7.41,0c0-0.22,0-0.43,0-0.67
			c0.15-0.01,0.29-0.02,0.43-0.03c0.94-0.09,1.44-0.51,1.62-1.43c0.1-0.54,0.13-1.1,0.19-1.65c0.02-0.18,0.01-0.37,0.01-0.56
			c0-7.07,0-14.13-0.01-21.2c0-0.69-0.04-1.4-0.16-2.08c-0.19-1.08-0.7-1.48-1.79-1.55c-0.09-0.01-0.17-0.01-0.28-0.02
			c0-0.23,0-0.44,0-0.67c2.48,0,4.94,0,7.43,0c0,0.23,0,0.43,0,0.65c-0.06,0.01-0.12,0.03-0.17,0.03c-0.1,0.01-0.21,0.01-0.31,0.03
			c-1.02,0.14-1.47,0.56-1.62,1.58c-0.08,0.5-0.13,1.02-0.13,1.52c-0.02,1.14,0.01,2.28,0.01,3.42c0,2.24-0.01,4.49-0.02,6.73
			c0,0.1,0,0.2,0,0.37c0.1-0.07,0.16-0.11,0.2-0.15c2.33-2.26,4.66-4.52,6.99-6.77c1.65-1.6,3.31-3.2,4.96-4.81
			c0.31-0.3,0.6-0.62,0.87-0.95c0.31-0.39,0.24-0.65-0.25-0.76c-0.51-0.11-1.04-0.15-1.56-0.2c-0.28-0.03-0.57,0-0.88,0
			c0-0.25,0-0.46,0-0.69c3.11,0,6.23,0,9.36,0c0,0.23,0,0.44,0,0.66c-0.36,0.03-0.71,0.05-1.06,0.07c-1.82,0.13-3.33,0.9-4.62,2.17
			c-1.37,1.35-2.75,2.69-4.13,4.04c-1.77,1.73-3.54,3.46-5.31,5.18c-0.11,0.11-0.23,0.22-0.14,0.43
			C137.1,19.01,137.6,19.04,138.12,19.08z"/>
	</g>
</g>
</svg>
