<?xml version="1.0" encoding="utf-8"?>
<!-- Generator: Adobe Adobe Illustrator 24.2.0, SVG Export Plug-In . SVG Version: 6.00 Build 0)  -->
<svg version="1.1" xmlns="http://www.w3.org/2000/svg" xmlns:xlink="http://www.w3.org/1999/xlink" x="0px" y="0px" width="43px"
	 height="50px" viewBox="0 0 43 50" style="enable-background:new 0 0 43 50;" xml:space="preserve">
<style type="text/css">
	.st0{display:none;fill:#F5F5F5;}
	.st1{fill:#FFFFFF;}
	.st2{display:none;}
	.st3{display:inline;fill:#46080E;}
	.st4{display:inline;fill:#F6F5F1;}
	.st5{display:none;fill:#E6E6E6;}
	.st6{display:none;fill:#F5F5F1;}
	.st7{display:none;fill:#FFFFFF;}
	.st8{fill:#3D090D;}
	.st9{fill:#F4F4F1;}
	.st10{fill:#F5F5F1;}
	.st11{fill:#3D080D;}
	.st12{clip-path:url(#SVGID_7_);}
	.st13{clip-path:url(#SVGID_8_);}
	.st14{clip-path:url(#SVGID_9_);}
	.st15{clip-path:url(#SVGID_10_);}
	.st16{clip-path:url(#SVGID_11_);}
	.st17{clip-path:url(#SVGID_12_);fill:#5B1316;}
	.st18{clip-path:url(#SVGID_19_);}
	.st19{clip-path:url(#SVGID_20_);}
	.st20{clip-path:url(#SVGID_21_);}
	.st21{clip-path:url(#SVGID_22_);}
	.st22{clip-path:url(#SVGID_23_);}
	.st23{clip-path:url(#SVGID_24_);fill:#F5F5F1;}
	.st24{clip-path:url(#SVGID_31_);}
	.st25{clip-path:url(#SVGID_32_);}
	.st26{clip-path:url(#SVGID_33_);}
	.st27{clip-path:url(#SVGID_34_);}
	.st28{clip-path:url(#SVGID_35_);}
	.st29{clip-path:url(#SVGID_36_);fill:#5B1316;}
	.st30{clip-path:url(#SVGID_43_);}
	.st31{clip-path:url(#SVGID_44_);}
	.st32{clip-path:url(#SVGID_45_);}
	.st33{clip-path:url(#SVGID_46_);}
	.st34{clip-path:url(#SVGID_47_);}
	.st35{clip-path:url(#SVGID_48_);fill:#F4F4F1;}
	.st36{fill:#F6F5F1;}
	.st37{opacity:0.502;fill:#F5F5F1;}
	.st38{opacity:0.5216;fill:#F5F5F1;}
	.st39{fill:#5B0F0A;}
	.st40{fill:#CEBEA5;}
	.st41{fill:#AB9A80;}
	.st42{fill:#F5F4F1;}
	.st43{fill:#5C1116;}
	.st44{fill:#CDBEA5;}
	.st45{fill:#5B1316;}
	.st46{opacity:0.5882;}
	.st47{fill:#5B100B;}
	.st48{fill:#CEBFA5;}
	.st49{fill:none;stroke:#B5B4AD;stroke-width:0.4728;stroke-miterlimit:10;}
	.st50{fill:#A18F72;}
	.st51{opacity:0.8588;}
	.st52{opacity:0.4902;}
	.st53{opacity:0.3098;}
	.st54{opacity:0.2902;}
	.st55{opacity:0.4902;fill:#F4F4F1;}
	.st56{display:inline;}
	.st57{opacity:0.4902;fill:#F5F5F1;}
</style>
<g id="Calque_3">
</g>
<g id="Calque_2" class="st2">
</g>
<g id="Calque_1">
	<g>
		<g>
			<path class="st39" d="M37.77,41.86c0.19,0.19,0.48,0.19,0.48,0.19v0.65h-5.49v-0.65c0,0,0.18-0.01,0.28-0.06
				c0.08-0.04,0.19-0.12,0.32-0.25c0.13-0.13,0.27-0.37,0.41-0.72c0.15-0.34,0.22-0.7,0.22-1.05V22.01H23.3v1.04
				c0,0.76,0.24,1.4,0.75,1.89c0.2,0.19,0.48,0.2,0.48,0.2v0.64h-5.49l-0.01-0.64c0,0,0.18-0.01,0.29-0.07
				c0.08-0.04,0.19-0.12,0.32-0.25c0.13-0.13,0.27-0.37,0.41-0.72c0.15-0.34,0.22-0.7,0.22-1.05V7.03c0-0.76-0.26-1.38-0.75-1.89
				c-0.18-0.19-0.48-0.19-0.48-0.19V4.3h5.49v0.64c0,0-0.36,0.06-0.6,0.32c-0.13,0.13-0.27,0.37-0.41,0.72
				c-0.15,0.34-0.22,0.7-0.22,1.05v12.63h10.69v-8.69c0-0.76-0.26-1.38-0.75-1.89c-0.18-0.18-0.48-0.19-0.48-0.19V8.24h5.49
				l0.01,0.65c0,0-0.37,0.06-0.6,0.31c-0.13,0.13-0.27,0.37-0.41,0.72c-0.15,0.34-0.22,0.7-0.22,1.05v29.01
				C37.02,40.73,37.26,41.37,37.77,41.86z"/>
		</g>
		<path class="st39" d="M29.84,30.1h-6.59c0.03,0.51,0.08,3.29-1.39,5.72c-3.69,6.13-10.83,4.33-12.42,3.64
			c-1.28-0.55-2.43-1.21-3.38-2.1c-0.96-0.89-1.72-2-2.28-3.31c-0.57-1.31-0.84-2.58-0.84-3.82c0-1.23,0.11-2.26,0.34-3.09
			c0.41-1.49,1.06-2.71,1.94-3.65c0.89-0.94,1.95-1.85,3.09-2.63v-0.01c-1.05-0.82-1.78-1.59-2.08-2.19
			c-0.3-0.6-0.45-1.31-0.45-2.13c0-1.71,0.54-3.09,1.61-4.16c1.07-1.07,2.42-1.6,4.05-1.6c0.58,0,1.29,0.16,2.15,0.46
			c0.17,0.07,0.46-0.04,0.66-0.18c0.21-0.13,0.45-0.35,0.45-0.35l0.72,0.62c0,0-0.01,0.08-0.02,0.29c-0.05,0.9,1.06,5.05,1.06,5.05
			l-1,0.37c0,0-0.83-1.79-1.14-2.37c-0.54-1.03-1.41-1.52-2.53-1.52s-1.98,0.3-2.57,0.89c-0.6,0.59-0.9,1.41-0.9,2.45
			c0,0.58,0.21,1.13,0.62,1.63c0.86,1.05,2.03,1.57,3.51,1.57h2.31l0.01,2.34h-2.31c-1.35,0-2.61,0.44-3.82,1.31
			c-2.1,1.52-3.16,3.55-3.17,6.07c0,1.03,0.26,2.03,0.77,3c0.52,0.97,1.18,1.8,2,2.49c0.82,0.69,1.75,1.25,2.8,1.67
			c1.05,0.41,2.01,0.62,2.86,0.62c0.86,0,1.59-0.09,2.19-0.27c0.59-0.18,1.1-0.43,1.52-0.72c0.41-0.3,0.8-0.65,1.14-1.05
			c0.59-0.69,0.98-1.47,1.3-2.31c0.27-0.73,0.26-2.28,0.25-2.75h-7.27c-1.13-0.02-1.41,0.29-1.92,0.8l-0.33,0.38l-0.68-0.23
			l1.44-3.58l16.19,0.02c0.87,0,1.29-0.18,1.92-0.78l0.41-0.52l0.64,0.01L29.84,30.1z"/>
	</g>
</g>
</svg>
